<svg xmlns="http://www.w3.org/2000/svg" xmlns:xlink="http://www.w3.org/1999/xlink" width="1889.92" height="1439.437" viewBox="0 0 1889.92 1439.437">
  <defs>
    <linearGradient id="linear-gradient" x1="-0.797" y1="0.548" x2="0.198" y2="0.548" gradientUnits="objectBoundingBox">
      <stop offset="0" stop-color="#dae3fe"/>
      <stop offset="1" stop-color="#e9effd"/>
    </linearGradient>
    <linearGradient id="linear-gradient-2" x1="0.511" y1="1.032" x2="0.473" y2="-0.281" gradientUnits="objectBoundingBox">
      <stop offset="0" stop-color="#4738cb"/>
      <stop offset="1" stop-color="#1b1361"/>
    </linearGradient>
    <linearGradient id="linear-gradient-3" y1="0.5" x2="1" y2="0.5" gradientUnits="objectBoundingBox">
      <stop offset="0" stop-color="#4042e2"/>
      <stop offset="1" stop-color="#4f52ff"/>
    </linearGradient>
    <linearGradient id="linear-gradient-4" x1="0.864" y1="1.42" x2="0.079" y2="-0.565" gradientUnits="objectBoundingBox">
      <stop offset="0" stop-color="#020039"/>
      <stop offset="1" stop-color="#090056"/>
    </linearGradient>
    <linearGradient id="linear-gradient-5" x1="-0.189" y1="-0.087" x2="0.96" y2="0.871" xlink:href="#linear-gradient-2"/>
    <linearGradient id="linear-gradient-6" x1="0.398" y1="-0.241" x2="0.431" y2="0.004" gradientUnits="objectBoundingBox">
      <stop offset="0" stop-color="#fedb72"/>
      <stop offset="1" stop-color="#fedb72"/>
    </linearGradient>
    <linearGradient id="linear-gradient-7" x1="1.028" y1="-0.994" x2="0.861" y2="-0.52" xlink:href="#linear-gradient-6"/>
    <linearGradient id="linear-gradient-8" x1="0.514" y1="-0.304" x2="0.24" y2="15.061" xlink:href="#linear-gradient-6"/>
    <linearGradient id="linear-gradient-9" x1="0.542" y1="-2.154" x2="0.262" y2="15.254" xlink:href="#linear-gradient-6"/>
    <linearGradient id="linear-gradient-10" x1="0.57" y1="-3.998" x2="0.296" y2="13.938" xlink:href="#linear-gradient-6"/>
    <linearGradient id="linear-gradient-11" x1="0.706" y1="-0.416" x2="0.622" y2="-0.03" xlink:href="#linear-gradient-2"/>
    <linearGradient id="linear-gradient-12" x1="0.414" y1="-0.278" x2="0.447" y2="-0.035" xlink:href="#linear-gradient-6"/>
    <linearGradient id="linear-gradient-13" x1="0.615" y1="-1.383" x2="0.559" y2="-0.428" xlink:href="#linear-gradient-6"/>
    <linearGradient id="linear-gradient-14" x1="0.529" y1="-1.66" x2="0.268" y2="17.757" xlink:href="#linear-gradient-6"/>
    <linearGradient id="linear-gradient-15" x1="0.552" y1="-2.638" x2="0.291" y2="13.024" xlink:href="#linear-gradient-6"/>
    <linearGradient id="linear-gradient-17" x1="0.55" y1="-1.88" x2="0.501" y2="0.544" xlink:href="#linear-gradient-6"/>
    <linearGradient id="linear-gradient-18" x1="-11.421" y1="25.97" x2="-11.723" y2="27.493" xlink:href="#linear-gradient-6"/>
    <linearGradient id="linear-gradient-19" x1="-40.357" y1="28.211" x2="-41.344" y2="29.864" xlink:href="#linear-gradient-6"/>
    <linearGradient id="linear-gradient-20" x1="0.616" y1="-3.708" x2="0.532" y2="-0.611" xlink:href="#linear-gradient-2"/>
    <linearGradient id="linear-gradient-21" x1="0.444" y1="0.894" x2="0.637" y2="-0.48" xlink:href="#linear-gradient-6"/>
    <linearGradient id="linear-gradient-22" x1="0.422" y1="0.951" x2="0.679" y2="-0.53" xlink:href="#linear-gradient-6"/>
    <linearGradient id="linear-gradient-23" x1="0.754" y1="-1.807" x2="0.451" y2="0.949" xlink:href="#linear-gradient-6"/>
    <linearGradient id="linear-gradient-24" x1="1.845" y1="-1.239" x2="0.12" y2="0.992" xlink:href="#linear-gradient-6"/>
    <linearGradient id="linear-gradient-25" x1="0.485" y1="0.93" x2="0.518" y2="-0.35" xlink:href="#linear-gradient-3"/>
    <linearGradient id="linear-gradient-26" x1="0.601" y1="-0.445" x2="0.458" y2="0.815" xlink:href="#linear-gradient-3"/>
    <linearGradient id="linear-gradient-27" x1="0.316" y1="0.843" x2="0.092" y2="1.391" xlink:href="#linear-gradient-3"/>
    <linearGradient id="linear-gradient-28" x1="3.272" y1="0.054" x2="4.389" y2="0.054" gradientUnits="objectBoundingBox">
      <stop offset="0" stop-color="#09005d"/>
      <stop offset="1" stop-color="#1a0f91"/>
    </linearGradient>
    <linearGradient id="linear-gradient-29" x1="-0.027" y1="0.315" x2="0.972" y2="0.315" xlink:href="#linear-gradient-28"/>
    <linearGradient id="linear-gradient-30" x1="0.426" y1="0.516" x2="-1.451" y2="0.807" gradientUnits="objectBoundingBox">
      <stop offset="0" stop-color="#ff928e"/>
      <stop offset="1" stop-color="#feb3b1"/>
    </linearGradient>
    <linearGradient id="linear-gradient-31" x1="1.19" y1="0.121" x2="0.544" y2="0.533" xlink:href="#linear-gradient-30"/>
    <linearGradient id="linear-gradient-32" x1="0" y1="0.5" x2="1" y2="0.5" xlink:href="#linear-gradient-30"/>
    <linearGradient id="linear-gradient-33" x1="-38.158" y1="-1.451" x2="-39" y2="0.424" xlink:href="#linear-gradient-3"/>
    <linearGradient id="linear-gradient-34" x1="-69.897" y1="-14.168" x2="-70.852" y2="-12.757" xlink:href="#linear-gradient-3"/>
    <linearGradient id="linear-gradient-35" x1="1.14" y1="-0.188" x2="0.025" y2="1.245" xlink:href="#linear-gradient-3"/>
    <linearGradient id="linear-gradient-36" x1="0.399" y1="-0.003" x2="0.562" y2="1.618" xlink:href="#linear-gradient-30"/>
    <linearGradient id="linear-gradient-37" x1="0.884" y1="0.087" x2="-1.046" y2="1.802" xlink:href="#linear-gradient-6"/>
    <linearGradient id="linear-gradient-38" x1="1.205" y1="-0.089" x2="-1.004" y2="1.396" xlink:href="#linear-gradient-30"/>
    <linearGradient id="linear-gradient-39" x1="1.763" y1="-0.515" x2="-5.935" y2="5.655" xlink:href="#linear-gradient-30"/>
    <linearGradient id="linear-gradient-40" x1="0.011" y1="-0.854" x2="0.797" y2="1.225" xlink:href="#linear-gradient-30"/>
    <linearGradient id="linear-gradient-41" x1="0" y1="0.5" x2="1" y2="0.5" xlink:href="#linear-gradient-28"/>
    <linearGradient id="linear-gradient-43" x1="0.822" y1="1.16" x2="0.171" y2="0.361" xlink:href="#linear-gradient-28"/>
    <linearGradient id="linear-gradient-45" x1="0.5" y1="1.006" x2="0.5" y2="-4.005" xlink:href="#linear-gradient-3"/>
    <linearGradient id="linear-gradient-46" x1="-0.029" y1="-8.219" x2="0.476" y2="-0.023" xlink:href="#linear-gradient-3"/>
    <linearGradient id="linear-gradient-47" x1="0.842" y1="-0.124" x2="0.127" y2="0.651" xlink:href="#linear-gradient-28"/>
    <linearGradient id="linear-gradient-48" x1="-11.777" y1="-0.229" x2="-11.128" y2="1.514" xlink:href="#linear-gradient-6"/>
    <linearGradient id="linear-gradient-49" x1="0.5" y1="0.214" x2="0.5" y2="2.816" xlink:href="#linear-gradient-30"/>
    <linearGradient id="linear-gradient-50" x1="-28.688" y1="4.862" x2="-28.412" y2="3.622" xlink:href="#linear-gradient-30"/>
    <linearGradient id="linear-gradient-51" x1="-16.94" y1="-0.467" x2="-16.762" y2="0.954" xlink:href="#linear-gradient-28"/>
    <linearGradient id="linear-gradient-52" x1="-141.299" y1="14.342" x2="-139.99" y2="10.421" xlink:href="#linear-gradient-30"/>
    <linearGradient id="linear-gradient-53" y1="0.5" x2="1" y2="0.5" gradientUnits="objectBoundingBox">
      <stop offset="0" stop-color="#755800"/>
      <stop offset="1" stop-color="#474646"/>
    </linearGradient>
    <linearGradient id="linear-gradient-58" x1="0.59" y1="-0.035" x2="0.358" y2="1.564" xlink:href="#linear-gradient-30"/>
  </defs>
  <g id="welcome4" transform="translate(-348.012 -91.701)">
    <path id="Path_845" data-name="Path 845" d="M1084.672,1338.484s656.187-54.6,822.93-239.206,82.231-344.921-62.041-378.948-172.769-80.913-103.819-154.324,151.609-218.529-19.963-340.264-333.987,91.812-478.234,79.148-96.407-105.822-277.116-27.511S810.114,175.17,658.706,173.346,530.549,347.531,365.318,396.692c-282.6,84.081-44.555,443.993-89.963,543.574s-64.75,414.748,186.857,435.689S1084.672,1338.484,1084.672,1338.484Z" transform="translate(168.712 66.249)" fill="url(#linear-gradient)"/>
    <path id="Path_846" data-name="Path 846" d="M444.58,361.865c-40.029,198.478-96.319,734.693,396.628,957.62a51.284,51.284,0,0,0,69.615-30.168c49.3-144.215,135.272-571.541-385.392-958.631C495.246,308.245,452.015,324.995,444.58,361.865Z" transform="translate(148.685 51.12)" fill="#91b3fa"/>
    <path id="Path_847" data-name="Path 847" d="M225.91,842.011C252.631,999.075,362.9,1408.74,787.9,1433.072a40.352,40.352,0,0,0,42.591-41.834C825.92,1271.4,768.237,933.3,276.465,796.258,247.955,788.313,220.947,812.834,225.91,842.011Z" transform="translate(168.633 2.388)" fill="#bdd0fb"/>
    <g id="Group_61" data-name="Group 61">
      <path id="Path_848" data-name="Path 848" d="M1818.349,1415.274c55.644,11.125,126.7-49.539,149.593-115.814,23.557-68.2-19.636-96.774-19.3-191.414.379-107.509,56.3-123.711,93.295-268.624,8.346-32.7,56.644-221.9-3.217-257.364-55.348-32.791-210.813,61.315-238.062,181.763-19.429,85.886,40.633,121.946,17.694,221.977-20.128,87.77-73.027,89.04-93.294,173.721C1700.38,1262.61,1745.289,1400.666,1818.349,1415.274Z" fill="#bdd0fb"/>
      <path id="Path_849" data-name="Path 849" d="M1822.39,1441.32c-15-115.832,14.262-294.533,41.452-424.048,29.436-140.222,62.846-254.6,63.18-255.739l4.631,1.359c-.334,1.137-33.7,115.362-63.1,255.4-27.108,129.139-56.292,307.249-41.38,422.4Z" fill="#7d97f4"/>
    </g>
    <g id="Group_62" data-name="Group 62">
      <path id="Path_850" data-name="Path 850" d="M1913.3,1399.251c-65.173-33.958-87.481-150.567-50.434-188.466,25.032-25.607,60.929,1.327,95.56-25.217,44.216-33.891,11.69-97.72,46.453-180.5,29.583-70.448,100.545-137.11,142.013-123.432,43.407,14.318,66.269,120.55,29.2,184.484-24.108,41.577-61.01,43.618-69.016,82.288-9.289,44.869,35.59,65.331,35.835,108.832C2143.35,1335.378,1999.521,1444.175,1913.3,1399.251Z" fill="#bdd0fb"/>
      <path id="Path_851" data-name="Path 851" d="M1948.471,1429.114a2.655,2.655,0,0,1-2.386-3.814c86.4-178.041,111.738-384.584,111.984-386.649a2.654,2.654,0,1,1,5.271.627c-.246,2.074-25.691,209.505-112.479,388.34A2.656,2.656,0,0,1,1948.471,1429.114Z" fill="#7d97f4"/>
      <path id="Path_852" data-name="Path 852" d="M2125.737,1092.821a1.95,1.95,0,0,1-1.538-3.149c49.249-63.216,52.464-110.371,46.488-138.795-6.433-30.6-24.5-46.526-24.681-46.684a1.951,1.951,0,1,1,2.553-2.95c.783.677,19.246,16.955,25.947,48.83,6.146,29.234,2.941,77.6-47.228,142A1.953,1.953,0,0,1,2125.737,1092.821Z" fill="#f0f0f0"/>
      <path id="Path_853" data-name="Path 853" d="M1907.426,1384.385a1.95,1.95,0,0,1-1.611-.848c-42.053-61.375-56.366-108.857-42.544-141.132,12.349-28.834,42.561-34.042,43.841-34.249a1.952,1.952,0,0,1,.627,3.853c-.294.047-29.426,5.118-40.9,31.979-13.042,30.53,1.549,78.022,42.2,137.343a1.95,1.95,0,0,1-1.608,3.054Z" fill="#f0f0f0"/>
    </g>
    <g id="Group_63" data-name="Group 63">
      <path id="Path_854" data-name="Path 854" d="M882.1,371.094c-5.056,203.984-21.457,852.622-13.628,1101.963a50.063,50.063,0,0,0,48.42,48.482c130.646,4.275,506.477,15.111,720.17,6.146a84.3,84.3,0,0,0,80.827-82.458c4.441-214.108,14.238-761.331-9.049-1037.2A68.793,68.793,0,0,0,1647.1,345.35c-142.279-14.234-520.171-49.026-704.788-37.045A64.47,64.47,0,0,0,882.1,371.094Z" fill="url(#linear-gradient-2)"/>
      <path id="Path_855" data-name="Path 855" d="M935.183,436.083c-7.136,171.924-29.643,688.894-22.5,900.39,1.044,30.913,24.719,55.908,54.725,57.715,123.541,7.44,440.415,23.845,621.62,8.913,32.629-2.689,58.234-29.845,59.995-63.482,9.183-175.4,35.549-652.985,28.7-862.111-1.093-33.361-26.2-60.606-58.51-63.591-133.653-12.349-476.918-41.733-630.9-33.087C959.409,382.453,936.418,406.319,935.183,436.083Z" fill="#bdd0fb"/>
      <path id="Path_856" data-name="Path 856" d="M1204.975,343.948h0A11.745,11.745,0,0,0,1216.1,355.7c30.858,1.616,117.785,6.189,156.633,8.443a11.755,11.755,0,0,0,12.219-13.975l-.248-1.285a11.757,11.757,0,0,0-10.468-9.488c-26.26-2.406-105.5-9.078-158-7.2A11.732,11.732,0,0,0,1204.975,343.948Z" fill="url(#linear-gradient-3)"/>
      <rect id="Rectangle_14" data-name="Rectangle 14" width="227.776" height="60.871" rx="15.099" transform="translate(1158.129 1430.769)" fill="url(#linear-gradient-4)"/>
    </g>
    <g id="Group_64" data-name="Group 64">
      <path id="Path_857" data-name="Path 857" d="M1010.335,907.556,992.478,473.348a15.99,15.99,0,0,1,14.879-17.085c31.279-2.063,111.566-.1,266.5,45.49L1288.7,900.945Z" fill="url(#linear-gradient-5)"/>
      <path id="Path_858" data-name="Path 858" d="M1036.544,908.451l-19.233-459.035a12.432,12.432,0,0,1,12.428-13.273c43.5.045,182.127,5.107,244.119,65.61L1288.7,900.945Z" fill="url(#linear-gradient-6)"/>
      <path id="Path_859" data-name="Path 859" d="M1052.116,902.188a11.1,11.1,0,0,1-10.7-10.352L1024.234,456.1a12.015,12.015,0,0,1,11.932-12.879c40.943.027,169.688,4.7,230.735,60.224a11.214,11.214,0,0,1,3.686,7.88l13.5,370.776a11.1,11.1,0,0,1-11.475,11.5Z" fill="#fff" opacity="0.7"/>
      <path id="Path_860" data-name="Path 860" d="M1043.628,473.748,1061.341,713.8a17.349,17.349,0,0,0,16.88,16.068l162.516,3.951a17.348,17.348,0,0,0,17.767-17.705l-4.165-199.852a17.326,17.326,0,0,0-9.767-15.247c-26.742-12.938-105.545-47.383-183.911-45.906A17.38,17.38,0,0,0,1043.628,473.748Z" fill="url(#linear-gradient-7)"/>
      <path id="Path_861" data-name="Path 861" d="M1065.58,766.328l1.1,6.122a8.282,8.282,0,0,0,7.891,6.818l171.9,5.429a8.283,8.283,0,0,0,8.493-9.2l-1.025-8.173A8.038,8.038,0,0,0,1246,760.1l-172.1-3.514A8.283,8.283,0,0,0,1065.58,766.328Z" fill="url(#linear-gradient-8)"/>
      <path id="Path_862" data-name="Path 862" d="M1068.74,811.044l.522,8.253a8.282,8.282,0,0,0,8.32,7.759l168.154-1.106a8.282,8.282,0,0,0,8.191-9.063l-.127-.136a8.036,8.036,0,0,0-7.768-7.357l-168.676-7.147A8.283,8.283,0,0,0,1068.74,811.044Z" fill="url(#linear-gradient-9)"/>
      <path id="Path_863" data-name="Path 863" d="M1069.982,857.14l.82,7.112a5.817,5.817,0,0,0,5.75,5.149l177.34.836a5.816,5.816,0,0,0,5.689-7.147l-2.928-12.454a5.814,5.814,0,0,0-5.745-4.484l-173.461,2.491A7.624,7.624,0,0,0,1069.982,857.14Z" fill="url(#linear-gradient-10)"/>
      <path id="Path_864" data-name="Path 864" d="M1282.828,500.868s120.01-81.7,270.985-36.182a21.3,21.3,0,0,1,15.119,20.542l-2.924,425.191L1288.7,900.945Z" fill="url(#linear-gradient-11)"/>
      <path id="Path_865" data-name="Path 865" d="M1544.909,460.358l2.9,449.439L1288.7,900.945l-14.839-399.192s126.862-80.773,249.625-65.7A24.58,24.58,0,0,1,1544.909,460.358Z" fill="url(#linear-gradient-12)"/>
      <path id="Path_866" data-name="Path 866" d="M1540.5,467.252l2.728,422.593a12.486,12.486,0,0,1-12.912,12.559l-225.906-7.717a13.143,13.143,0,0,1-12.685-12.647L1277.8,507.372s122.954-78.286,241.936-63.679A23.823,23.823,0,0,1,1540.5,467.252Z" fill="#fff" opacity="0.7"/>
      <path id="Path_867" data-name="Path 867" d="M1328.249,506.718a28.466,28.466,0,0,0-21.123,29.038c2.927,55.025,10.334,192.945,13.4,237.6a15.388,15.388,0,0,0,15.379,14.331l167.647-.157a17.841,17.841,0,0,0,17.824-17.888l-.757-283.4a17.037,17.037,0,0,0-16.263-16.99C1477.38,468.038,1374.227,494.5,1328.249,506.718Z" fill="url(#linear-gradient-13)"/>
      <path id="Path_868" data-name="Path 868" d="M1328.279,816.563l183.353,6.264a7.938,7.938,0,0,1,7.663,8.2l0,.107a7.938,7.938,0,0,1-8.2,7.663l-183.352-6.264a7.938,7.938,0,0,1-7.663-8.205l0-.107A7.94,7.94,0,0,1,1328.279,816.563Z" fill="url(#linear-gradient-14)"/>
      <path id="Path_869" data-name="Path 869" d="M1318.666,860.765l.019,4.96a7.94,7.94,0,0,0,7.648,7.9l183.487,6.744a7.939,7.939,0,0,0,8.231-7.964h0a7.94,7.94,0,0,0-7.434-7.892l-183.507-11.7A7.939,7.939,0,0,0,1318.666,860.765Z" fill="url(#linear-gradient-15)"/>
    </g>
    <g id="Group_68" data-name="Group 68">
      <g id="Group_65" data-name="Group 65">
        <path id="Path_870" data-name="Path 870" d="M1010.537,1067.293s-85.845,9.807-113.613-20.148c-1.235-1.332.169-3.114,2.413-3.114h16.32c3.9,0,5.911-3.3,3.236-5.319-8.551-6.451-21.539-17.988-24.244-30.223-.722-3.264,3.86-5.81,8.07-4.41,22.572,7.505,85.828,27.156,127.267,26.4Z" fill="url(#linear-gradient-3)"/>
        <path id="Path_871" data-name="Path 871" d="M1010.514,1099.1l549.067,18.727a37.546,37.546,0,0,0,38.827-37.524v-43.762a37.547,37.547,0,0,0-37.547-37.546H1023.106c-12.61,0-23.777,5.718-27.856,14.2-7.645,15.9-17.186,42.935-10.553,69.484C986.958,1091.728,997.6,1098.524,1010.514,1099.1Z" fill="url(#linear-gradient-17)"/>
        <path id="Path_872" data-name="Path 872" d="M1406.717,1096.878l125.757,4.071c10.423.337,19.133-5.578,19.133-12.994v-60.7c0-7.183-8.193-13.007-18.3-13.007H1407.55c-10.107,0-18.3,5.824-18.3,13.007v56.629C1389.25,1090.838,1396.944,1096.562,1406.717,1096.878Z" fill="#f4b0ad"/>
      </g>
      <g id="Group_66" data-name="Group 66">
        <path id="Path_873" data-name="Path 873" d="M1572.447,938.1a33.574,33.574,0,0,0-33.574-33.574h-505.71c-10.4,0-19.664,4.8-22.7,11.871a91.54,91.54,0,0,0,.331,73.594c2.8,6.4,11.1,10.772,20.528,10.772h507.554a33.574,33.574,0,0,0,33.574-33.574Z" fill="#4547eb"/>
        <path id="Path_874" data-name="Path 874" d="M1040.128,991.242l61.542-2.335c7.669-.291,13.677-4.8,13.677-10.254V927.121c0-5.542-6.186-10.084-13.978-10.264l-60.724-1.4c-6.962-.161-13.113,3.221-14.582,8.061-3.8,12.517-9.031,37.145-.738,59.938C1027.061,988.224,1033.206,991.5,1040.128,991.242Z" fill="url(#linear-gradient-18)"/>
        <path id="Path_875" data-name="Path 875" d="M1141.869,987.238h0c7.574-.372,13.45-4.848,13.45-10.244V927.657c0-5.752-6.647-10.382-14.738-10.267h0c-7.864.113-14.156,4.677-14.156,10.267v49.337C1126.425,982.944,1133.518,987.649,1141.869,987.238Z" fill="url(#linear-gradient-19)"/>
      </g>
      <path id="Path_876" data-name="Path 876" d="M1035.974,1373.851l504.637,3.575a33.573,33.573,0,0,0,33.811-33.573V1240.234a33.573,33.573,0,0,0-34.392-33.564L1047.047,1218.7c-11.691.371-21.871,5.737-25.81,13.57-10.739,21.353-26.481,67.858-4.361,130.832C1019.07,1369.346,1026.916,1373.768,1035.974,1373.851Z" fill="#ffa6a3"/>
      <g id="Group_67" data-name="Group 67">
        <path id="Path_877" data-name="Path 877" d="M1044.806,1220.144l494.427-11.179a33.573,33.573,0,0,0,32.815-33.565v-35.862a33.574,33.574,0,0,0-33.087-33.571l-498.683-7.234c-11.251-.212-21.433,4.9-24.67,12.561-13.978,33.094-15.349,65.967,5.529,98.447C1025.353,1216.3,1034.669,1220.443,1044.806,1220.144Z" fill="url(#linear-gradient-20)"/>
        <path id="Path_878" data-name="Path 878" d="M1060,1210.876l22.012-1.212c6.668-.367,11.7-4.46,11.308-9.206l-6.807-83.153c-.357-4.365-5.2-7.868-11.339-8.2l-15.206-.808c-7.12-.379-13.192,3.625-13.192,8.7v85.173C1046.775,1207.261,1052.867,1211.268,1060,1210.876Z" fill="url(#linear-gradient-21)"/>
        <path id="Path_879" data-name="Path 879" d="M1112.6,1207.443h8.035c6.2,0,11.158-3.671,10.9-8.077l-4.673-79.655c-.244-4.153-5.052-7.431-10.9-7.431h-8.522c-6.222,0-11.184,3.693-10.9,8.111l5.162,79.655C1101.971,1204.185,1106.77,1207.443,1112.6,1207.443Z" fill="url(#linear-gradient-22)"/>
      </g>
      <path id="Path_880" data-name="Path 880" d="M1239.532,1362.986l112.451,6.2c9.32.513,17.108-8.5,17.108-19.8v-92.473c0-10.944-7.326-19.817-16.363-19.817H1240.276c-9.037,0-16.363,8.873-16.363,19.817v86.272C1223.913,1353.784,1230.793,1362.5,1239.532,1362.986Z" fill="url(#linear-gradient-23)"/>
      <rect id="Rectangle_15" data-name="Rectangle 15" width="25.501" height="163.208" transform="translate(1387.597 1212.8)" fill="url(#linear-gradient-24)"/>
    </g>
    <g id="Group_69" data-name="Group 69">
      <path id="Path_881" data-name="Path 881" d="M1398.678,239.084l-36.39,95.449s34.694,152.908,204.383,201.773,237.78-34.457,237.78-34.457l43.016-139.956Z" fill="url(#linear-gradient-25)"/>
      <path id="Path_882" data-name="Path 882" d="M1675.412,93.833a22.586,22.586,0,0,0-15.317-1.394l-341.489,88.743a22.714,22.714,0,0,0-9.385,38.964c66.249,58.86,216.748,195.887,273.238,274.886a22.68,22.68,0,0,0,26.736,7.895l346.394-135.784a22.714,22.714,0,0,0,7.027-37.93C1897.039,269.41,1730.109,119.624,1675.412,93.833Z" fill="url(#linear-gradient-26)"/>
      <path id="Path_883" data-name="Path 883" d="M1649.432,267.783s178.942,117.652,192.25,144.011-16.713,144.471-16.713,144.471c26.614,100.95,28.776,210.068-20.458,266.2,0,0-56.879-133.162-29.3-188.316s38.228-77.774,38.228-77.774,25.591-126.033,18.594-144.252C1832.028,412.124,1633.926,274.726,1649.432,267.783Z" fill="url(#linear-gradient-27)"/>
      <path id="Path_884" data-name="Path 884" d="M1363.94,213.336l170.555,174.827,42.639,43.707,10.66,10.927,5.319,5.434a32.3,32.3,0,0,0,32.761,7.909l116.519-36.561a1.894,1.894,0,0,1,1.149,3.61l-116.214,37.518a37.271,37.271,0,0,1-37.816-8.856l-5.4-5.429-10.749-10.839-43-43.355L1358.376,218.809a3.9,3.9,0,0,1,5.542-5.5Z" fill="#91b3fa"/>
      <path id="Path_885" data-name="Path 885" d="M1810.777,617.247c-.406.38-1.048,1.171-1.573,1.746l-1.595,2.061c-1.055,1.391-1.987,2.928-2.993,4.384l-2.666,4.677c-.832,1.6-1.566,3.255-2.358,4.88a49.287,49.287,0,0,0-2.11,5.015c-.64,1.7-1.348,3.381-1.939,5.1l-1.582,5.251a53.7,53.7,0,0,0-1.456,5.294l-1.185,5.379a54.591,54.591,0,0,0-1.053,5.413c-.5,3.65-1.072,7.295-1.532,10.957l-.754,11.072c-.054.924-.148,1.846-.17,2.772l.01,2.781.017,5.564c-.21,7.429.657,14.839,1.106,22.267.084,1.862.35,3.706.613,5.551l.759,5.539c.523,3.691.972,7.4,1.555,11.082,1.5,7.311,2.847,14.665,4.474,21.96L1802,787.721l.019.071a1.357,1.357,0,0,1-2.616.721l-6.31-21.707c-1.849-7.307-3.42-14.693-5.143-22.045-.7-3.711-1.258-7.449-1.894-11.175l-.927-5.6c-.319-1.864-.641-3.729-.781-5.619-.674-7.54-1.763-15.057-1.769-22.667l-.177-5.7-.088-2.849c-.005-.95.063-1.9.091-2.852l.457-11.42c.366-3.8.844-7.59,1.265-11.39.155-1.908.593-3.78.936-5.666l1.08-5.652c.3-1.9.883-3.739,1.369-5.6l1.515-5.578c.573-1.842,1.271-3.651,1.9-5.479a54.53,54.53,0,0,1,2.1-5.421c.8-1.773,1.542-3.572,2.4-5.327l2.768-5.189c1.073-1.667,2.05-3.373,3.215-5.008a42.639,42.639,0,0,1,3.926-4.926,3.905,3.905,0,1,1,5.677,5.364c-.052.055-.1.108-.16.16Z" fill="#91b3fa"/>
      <path id="Path_886" data-name="Path 886" d="M1815.508,663.945a5.207,5.207,0,0,1-.006,1.079l-.051,1.962-.083,3.948-.1,7.965-.111,15.968-.091,31.959.011,63.934a2.121,2.121,0,0,1-4.241.067l-1.793-63.925-.8-31.972-.335-16-.124-8.018-.027-4.044,0-2.033c.022-.891.1-1.954.215-2.911a3.69,3.69,0,0,1,7.336.045Z" fill="#91b3fa"/>
    </g>
    <g id="Group_73" data-name="Group 73">
      <g id="Group_71" data-name="Group 71">
        <path id="Path_887" data-name="Path 887" d="M844.494,899.369l-438.733,288.1a37.765,37.765,0,0,0-9.132,54.686l2.213,2.858a35.106,35.106,0,0,0,49.428,6.129L863.412,925.423Z" fill="url(#linear-gradient-28)"/>
        <ellipse id="Ellipse_2" data-name="Ellipse 2" cx="243.477" cy="239.085" rx="243.477" ry="239.085" transform="matrix(0.973, -0.23, 0.23, 0.973, 748.37, 565.461)" fill="#fff" opacity="0.5"/>
        <path id="Path_888" data-name="Path 888" d="M979.13,483.246c-145.618,34.4-236.28,178.21-202.5,321.2s179.214,231.021,324.833,196.619,236.28-178.208,202.5-321.2S1124.749,448.843,979.13,483.246Zm113.349,479.785C968.252,992.38,844.182,917.283,815.363,795.3s48.525-244.669,172.752-274.017,248.3,45.749,277.117,167.736S1216.707,933.683,1092.479,963.031Z" fill="url(#linear-gradient-29)"/>
        <g id="Group_70" data-name="Group 70">
          <path id="Path_889" data-name="Path 889" d="M803.837,830.987a.976.976,0,0,1-.913-.633c-2.226-5.934-4.246-12.027-6-18.113a.975.975,0,1,1,1.874-.541c1.745,6.038,3.748,12.082,5.957,17.968a.976.976,0,0,1-.571,1.256A.937.937,0,0,1,803.837,830.987Zm-15.3-72.824a.976.976,0,0,1-.973-.922,244.121,244.121,0,0,1,2.715-51.862,249.446,249.446,0,0,1,63.479-129.985,257.316,257.316,0,0,1,270.644-68.744.976.976,0,1,1-.627,1.848A253.877,253.877,0,0,0,983.56,502c-100.2,23.671-175.3,103.625-191.351,203.692a242.194,242.194,0,0,0-2.693,51.446.974.974,0,0,1-.921,1.027A.483.483,0,0,1,788.541,758.163Z" fill="#91b3fa"/>
        </g>
        <path id="Path_890" data-name="Path 890" d="M429.723,1247.544a.817.817,0,0,1-.1-.006c-15.908-1.608-25.6-8.19-28.813-19.56-3.233-11.442,1.5-23.894,11.787-30.986l52.324-36.09a.975.975,0,1,1,1.108,1.6L413.7,1198.6c-9.594,6.62-14.021,18.214-11.017,28.853,2.972,10.522,12.1,16.629,27.132,18.149a.975.975,0,0,1-.1,1.946Z" fill="#91b3fa"/>
        <path id="Path_891" data-name="Path 891" d="M481.6,1151.559a.974.974,0,0,1-.554-1.777l6.781-4.678a.974.974,0,1,1,1.107,1.6l-6.781,4.678A.961.961,0,0,1,481.6,1151.559Z" fill="#91b3fa"/>
      </g>
      <g id="Group_72" data-name="Group 72">
        <path id="Path_892" data-name="Path 892" d="M548.4,1204.189l-43.212,10.8,10.8,81.023s-16.2,16.2-21.606,37.811-10.382,112.326-10.382,112.326l-10.253,6.2-1.247,5.175,29.831,40.11-4.947-31.924c-.786-5.068.575-15.345.147-15.561,16.2-43.212,50.867-164.939,50.867-164.939Z" fill="url(#linear-gradient-30)"/>
        <path id="Path_893" data-name="Path 893" d="M561.03,1458.08c-.468-.007-.927.03-1.4,0,2.088-26.051,11.632-140.7,21.181-183.673,10.8-48.614-16.205-145.841-16.205-145.841l-48.614,48.614L543,1269.007c-18.508,27.762,3.019,190.343,2.555,190.273l.03.361-7.047,9.69.857,5.253,43.05,25.4-16.939-27.507A30.9,30.9,0,0,1,561.03,1458.08Z" fill="url(#linear-gradient-31)"/>
        <path id="Path_894" data-name="Path 894" d="M506.35,912.962s-94.652,131.339,0,198.68l9.644-8.6s-46.991-55.4,0-123.22Z" fill="url(#linear-gradient-32)"/>
        <path id="Path_895" data-name="Path 895" d="M585.282,1503.973H571.544a8.27,8.27,0,0,1-6.565-3.219c-4.283-5.565-13.156-16.422-17.4-16.705-5.712-.382-4.981,19.924-4.981,19.924h-3.2l-4.056-25.233a14.937,14.937,0,0,1,7.838-15.612h0s1.306,9.656,8.385,13.927,28.81,19.567,28.81,19.567a19.668,19.668,0,0,1,5.584.148C590.292,1497.554,589.687,1503.973,585.282,1503.973Z" fill="url(#linear-gradient-33)"/>
        <path id="Path_896" data-name="Path 896" d="M503.4,1502.407l-12.663-5.327a8.274,8.274,0,0,1-4.8-5.513c-1.79-6.79-5.758-20.239-9.56-22.145-5.116-2.567-12.317,16.434-12.317,16.434l-2.951-1.242,6.046-24.831a14.937,14.937,0,0,1,13.279-11.351h0s-2.541,9.407,2.328,16.089,18.968,29.207,18.968,29.207a19.624,19.624,0,0,1,5.09,2.3C510.512,1498.433,507.465,1504.115,503.4,1502.407Z" fill="url(#linear-gradient-34)"/>
        <path id="Path_897" data-name="Path 897" d="M576.988,1046.367s-1.589,9.737.739,36.5,13.453,89.609,11.188,149.736c0,0-31.628,7.371-86.578,3.88,0,0-23.191-93.877-17.541-129.565s36.3-61.291,36.3-61.291Z" fill="url(#linear-gradient-35)"/>
        <path id="Path_898" data-name="Path 898" d="M553.618,867.507l3.866,45.455H520.757l9.132-69.384Z" fill="url(#linear-gradient-36)"/>
        <path id="Path_899" data-name="Path 899" d="M509.877,906.677c12.675-.7,41.014-1.993,61.091-.9A23.32,23.32,0,0,1,592.555,924.3l4.9,23.466a56.52,56.52,0,0,1-.8,26.4l-19.668,72.2s-17.493,10.513-55.9-.737c0,0-33.726-80.426-19.921-131.874A9.56,9.56,0,0,1,509.877,906.677Z" fill="url(#linear-gradient-37)"/>
        <path id="Path_900" data-name="Path 900" d="M591.595,920.091c5.41,14.251,10.3,29.194,15.545,43.188,2.669,7.005,5.377,13.871,8.273,20.177,1.465,3.141,3.074,6.027,4.551,8.643a38.206,38.206,0,0,0,4.011,5.736c.17.148-.4.26-.59.269-.115.015,3.657.619,4.814.813l4.521-.027a157.722,157.722,0,0,0,21.182-2.906c14.849-2.769,30.288-6.657,46.14-9.6l.121-.023a5.586,5.586,0,0,1,4.71,9.686,162.411,162.411,0,0,1-20.2,14.747c-3.537,2.163-7.136,4.283-10.795,6.319-3.731,1.9-7.472,3.818-11.358,5.59a131.849,131.849,0,0,1-25.214,8.566c-2.447.41-4.862.839-7.379,1.176-2.824.1-5.388.349-8.472.17-1.638-.162-3.283-.363-4.925-.6a22.107,22.107,0,0,1-2.578-.463c-1.125-.337-2.247-.716-3.353-1.131a34.844,34.844,0,0,1-5.685-2.879c-1.559-1.028-2.981-2.1-4.36-3.2a58.939,58.939,0,0,1-11.036-12.77,100.89,100.89,0,0,1-6.957-12.316,168.155,168.155,0,0,1-9.572-24.193,225.686,225.686,0,0,1-10-48.99,14.711,14.711,0,0,1,28.4-6.5Z" fill="url(#linear-gradient-38)"/>
        <path id="Path_901" data-name="Path 901" d="M695.052,993.649l6.553-15.557L736.1,969.5s2.759,5.979-11.728,8.595c0,0,5.174,5.72,2.414,12.446S694.707,1004,695.052,993.649Z" fill="url(#linear-gradient-39)"/>
        <path id="Path_902" data-name="Path 902" d="M569.168,815.012c1.312.773,11.644,37.216,2.986,52.495s-35.1-1.835-42.265-23.929S534.236,794.41,569.168,815.012Z" fill="url(#linear-gradient-40)"/>
        <path id="Path_903" data-name="Path 903" d="M500.639,843.578c-5.931,29.058-25.581,21.1-39.5,34.033-22.557,20.952-54.827-.647-86.2,19.208-22.648,14.334-33.56,51.006-22.692,80.614,15.054,41.008,66.5,57.872,93.154,45.382,25.478-11.937,21.85-47.688,56.13-61.505,14.554-5.866,21.739-2.055,30.454-10.748,15.258-15.219,11.141-44.753,9.555-56.131-3.442-24.688-11.719-29.158-7.763-40.008,7.695-21.1,43.586-16.75,46.577-31.649,2.724-13.567-23.291-39.283-47.771-35.231C494.708,793.813,503.281,830.633,500.639,843.578Z" fill="url(#linear-gradient-41)"/>
        <path id="Path_904" data-name="Path 904" d="M363.562,970.488a.991.991,0,0,1-.964-.759c-4.85-20.133-2.65-36.643,6.542-49.075,15.254-20.632,44.9-22.674,45.2-22.691a1.009,1.009,0,0,1,1.05.93.99.99,0,0,1-.929,1.049c-.289.018-29.037,2.013-43.732,21.9-8.82,11.936-10.906,27.891-6.2,47.419a.993.993,0,0,1-.732,1.2A1.1,1.1,0,0,1,363.562,970.488Z" fill="#91b3fa"/>
        <path id="Path_905" data-name="Path 905" d="M460.658,988.918a.629.629,0,0,1-.126-.015.5.5,0,0,1-.354-.607c4.724-18.123,13.013-30.71,24.634-37.414,8.453-4.876,16.371-5.33,23.354-5.73,6.735-.388,12.55-.723,17.232-4.885,9.676-8.605,9.116-29.293-1.666-61.491a.5.5,0,1,1,.941-.314c10.92,32.609,11.384,53.651,1.383,62.545-4.938,4.393-10.913,4.737-17.833,5.134-6.874.4-14.665.843-22.916,5.6-11.382,6.564-19.514,18.948-24.168,36.806A.5.5,0,0,1,460.658,988.918Z" fill="#91b3fa"/>
        <path id="Path_906" data-name="Path 906" d="M514.67,836.367a.526.526,0,0,1-.159-.025.5.5,0,0,1-.311-.629c3.754-11.172,14.574-9.512,26.037-7.75,7.255,1.116,14.756,2.265,21.118.382,4.747-1.408,7.567-3.589,8.382-6.484,1.393-4.929-3.484-10.425-3.532-10.482a.495.495,0,1,1,.736-.662c.216.24,5.289,5.951,3.753,11.411-.914,3.244-3.961,5.656-9.056,7.166-6.579,1.948-14.189.781-21.552-.35-11.507-1.767-21.455-3.3-24.946,7.086A.5.5,0,0,1,514.67,836.367Z" fill="#91b3fa"/>
      </g>
    </g>
    <g id="Group_75" data-name="Group 75" transform="translate(-91.077 -60.118)">
      <path id="Path_907" data-name="Path 907" d="M2161.942,1080.3s57.946,32.1,62.74,86.427.4,279.817-115.8,335.316-270,42.709-328.875,36.642-91.517-46.079-98.809-73.628-19.07-130.171,42.864-163.274,126.983-83.817,191.982-133.2S2092.44,1038.589,2161.942,1080.3Z" fill="#7d97f4"/>
      <path id="Path_908" data-name="Path 908" d="M1742.328,1320.511s15.64.827,17.558,33c0,0-36.265,32.51-85.252,40.247-3.678.582,5.141-25.1,6.467-28.584C1687.409,1348.622,1707.275,1337.96,1742.328,1320.511Z" fill="url(#linear-gradient-3)"/>
      <path id="Path_909" data-name="Path 909" d="M1918.461,1282.678h-15.7a40.1,40.1,0,0,1-28.819-12.19c-26-26.825-90.973-89.973-142.332-107.375a17.359,17.359,0,0,0-21.224,9.176c-10.721,22.876-25.764,76.114,9.858,156.689,3.947,8.928,15.144,12.721,23.26,7.3a13.16,13.16,0,0,0,5.005-6.107l-3.917-94.179s86.4,75.571,101.424,90.154S1937.376,1331.84,1918.461,1282.678Z" fill="url(#linear-gradient-43)"/>
      <path id="Path_910" data-name="Path 910" d="M1599.391,1517.557c13.83-12.118,35.866-25.717,67.677-29.616l10.759,6.581a117.187,117.187,0,0,1-19.393,20.807c-11.518,6.69-29.3,15.752-44.049,17.716C1600.049,1534.954,1597.934,1526.291,1599.391,1517.557Z" fill="url(#linear-gradient-3)"/>
      <path id="Path_911" data-name="Path 911" d="M1681.1,1365.177c8.52,2.758,12.267,14.829,33.887,6.847a191.347,191.347,0,0,0,44.465-23.426c.179,1.557.329,3.182.433,4.916,0,0-38.238,36.371-87.225,44.108a4.875,4.875,0,0,1-5.267-6.569A123.045,123.045,0,0,1,1681.1,1365.177Z" fill="url(#linear-gradient-45)"/>
      <path id="Path_912" data-name="Path 912" d="M1588.972,1527.906a114.2,114.2,0,0,1,10.419-10.349c-1.457,8.734.658,17.4,14.994,15.488,14.745-1.964,32.531-11.026,44.049-17.716-14.436,12.313-36.4,25.381-64.125,24.613A7.272,7.272,0,0,1,1588.972,1527.906Z" fill="url(#linear-gradient-46)"/>
      <path id="Path_913" data-name="Path 913" d="M1917.254,1306.557l-154.551,1.674s-88.26,73.022-104.269,184.37c0,0-2.657,8.189,13.3,9.59,0,0,53.362-34.852,88.156-96.469,42.662-75.552,127.182-41.543,127.182-41.543,27.771-20.021,67.013-24.1,96.576-30.769Z" fill="url(#linear-gradient-47)"/>
      <path id="Path_914" data-name="Path 914" d="M1904.688,1305.195s18.92-51.43,22.986-101.4c0,0-13.841-11.9-22.492-17.027a6.256,6.256,0,0,1-2.444-8.111c6.361-13.177,44.827-64.915,47.708-65.634,15.662-3.909,79.892-34.449,125.129,27.429,19.414,26.555-3.853,108.3-91.931,192.961l-18.171,3.476Z" fill="url(#linear-gradient-48)"/>
      <path id="Path_915" data-name="Path 915" d="M2008.257,1069.365l11.5,38.36a4.218,4.218,0,0,1-1.638,4.7c-5.537,3.792-20.01,11.334-39.864,4.005a6.257,6.257,0,0,1-4.023-5.372l-2.726-33.417Z" fill="url(#linear-gradient-49)"/>
      <g id="Group_74" data-name="Group 74">
        <path id="Path_916" data-name="Path 916" d="M1940.91,1038.3s5.655,39.764,20.93,51.993,45.036,3.021,55.088-26.957l-20.029-51.256Z" fill="url(#linear-gradient-50)"/>
        <path id="Path_917" data-name="Path 917" d="M1999.155,1045.247a1.967,1.967,0,0,1-2.559-1.577c-.552-3.671-1.928-10.935-4.715-15.883,0,0,1.458-5.217-13.184,2.664s-36.635,19.458-49.584,12.564c-12.623-6.721-25.411-40.548,7.952-34.28a1.969,1.969,0,0,0,2.342-2.062c-.41-5.559.142-18.349,13.094-22.454,12.12-3.842,18.756,1.629,21.49,4.932a1.958,1.958,0,0,0,3.065-.049c3.631-4.741,13.491-14.83,28.006-8.433,11.957,5.269,13.816,12.634,13.619,17.223a1.963,1.963,0,0,0,2.8,1.872c3.661-1.687,9.551-2.563,15.193,4.506,7.8,9.773-3.346,18.248-6.69,20.47a1.969,1.969,0,0,0-.893,1.625c-.031,5.082-.822,27.252-11.934,39.757a1.985,1.985,0,0,1-3.3-.57l-8.555-20.384a1.977,1.977,0,0,0-2.43-1.117Z" fill="url(#linear-gradient-51)"/>
        <path id="Path_918" data-name="Path 918" d="M1998.975,1049.386s5.224-21.279,13.16-14.37-2.069,22.114-11.16,25.013Z" fill="url(#linear-gradient-52)"/>
      </g>
      <path id="Path_919" data-name="Path 919" d="M1927.674,1205.009a1.216,1.216,0,0,1-1.215-1.212c-.077-23.236,8.857-53.964,8.947-54.272a1.216,1.216,0,0,1,2.333.685c-.089.3-8.925,30.7-8.849,53.579a1.217,1.217,0,0,1-1.211,1.22Z" fill="url(#linear-gradient-53)"/>
      <path id="Path_920" data-name="Path 920" d="M1977.591,1216.277a1.215,1.215,0,0,1-.953-1.969c.239-.3,24.056-30.581,32.2-51.209a1.215,1.215,0,1,1,2.261.892c-8.273,20.963-32.309,51.518-32.551,51.824A1.212,1.212,0,0,1,1977.591,1216.277Z" fill="url(#linear-gradient-53)"/>
      <path id="Path_921" data-name="Path 921" d="M2011.253,1263.018l-4.554-6.437a1.216,1.216,0,1,1,1.985-1.4L2012.1,1260c33.5-14.894,54.25-54.983,54.457-55.39a1.216,1.216,0,0,1,2.166,1.1c-.213.419-21.721,41.994-56.566,56.913Z" fill="url(#linear-gradient-53)"/>
      <path id="Path_922" data-name="Path 922" d="M1906.521,1181.6s-25.384,73.107-74.853,17.464l-4.71-2.09h0L1791.5,1172.74l3.951,14.035a26.238,26.238,0,0,0,15.272,17.154l4.672,1.922c8.888,18.476,27.937,46.474,57.268,51.784,44.021,7.97,66.6-51.508,66.6-51.508Z" fill="url(#linear-gradient-32)"/>
      <path id="Path_923" data-name="Path 923" d="M1773.816,1154.075l-2.488,3.407a3.629,3.629,0,0,0,.885,5.136l55.859,38.16a3.63,3.63,0,0,0,4.7-.518h0a3.629,3.629,0,0,0-.421-5.342l-53.372-41.567A3.63,3.63,0,0,0,1773.816,1154.075Z" fill="url(#linear-gradient-41)"/>
      <path id="Path_924" data-name="Path 924" d="M1824.244,1189.3c-.7-.615,43.164-22.087,59.681-20.121,16.084,1.914,35.005,13.933,52.648,28.177,15.884,12.823,32.221,21.1,47.552,20.458,0,0,26.229,28.527,20.416,45.732,0,0-29.125,6.881-53.99-17.671-23.641-23.343-49.746-53.1-64.437-58.518a4.159,4.159,0,0,0-3.689.413c-4.413,2.81-18.186,9.556-36.219-1.227C1846.206,1186.546,1831.535,1195.68,1824.244,1189.3Z" fill="url(#linear-gradient-58)"/>
      <path id="Path_925" data-name="Path 925" d="M1837.249,1090.03c1.351,10.256,4.192,30,7.49,42.268a7.142,7.142,0,0,0,6.386,5.262c9.63.7,31.122,1.572,43.656-3.357a7.121,7.121,0,0,0,4.454-6.984c-.434-9.5-1.656-31.553-4.1-44.753a7.159,7.159,0,0,0-7.714-5.82c-10.174.942-30.646,2.992-44.276,5.374A7.171,7.171,0,0,0,1837.249,1090.03Z" fill="#7d97f4"/>
      <path id="Path_926" data-name="Path 926" d="M1807.936,1104.6l1.231,8.292a3.451,3.451,0,0,0,3.885,2.911l9.723-1.344a3.451,3.451,0,0,0,2.964-3.727l-.626-6.948a3.45,3.45,0,0,0-3.436-3.14h-10.328A3.45,3.45,0,0,0,1807.936,1104.6Z" fill="#7d97f4"/>
      <path id="Path_927" data-name="Path 927" d="M1811.792,1137.372l2.006,11.06a7.185,7.185,0,0,0,9.273,5.557l7.352-2.369a7.184,7.184,0,0,0,4.955-7.446l-.916-10.8a7.185,7.185,0,0,0-8.9-6.364l-8.441,2.1A7.184,7.184,0,0,0,1811.792,1137.372Z" fill="#7d97f4"/>
    </g>
    <g id="Group_76" data-name="Group 76">
      <path id="Path_928" data-name="Path 928" d="M932.669,1309.046c-10.311-38.722-32.294-70.26-59.183-89.491a113.718,113.718,0,0,1-45.994-71.989q-.831-4.581-2.056-9.2c-12.4-46.569-50.987-76.722-86.185-67.349s-53.678,54.722-41.278,101.29a112.852,112.852,0,0,0,10.641,26.3c14.276,25.369,18.931,55.18,11.915,83.444-6.269,25.259-6.239,54.049,1.491,83.079,11.53,43.3,37.652,77.616,68.91,95.787a111.955,111.955,0,0,1,30.924,26.494c14.243,17.686,35.06,26.7,54.82,21.435,21.318-5.677,35.44-26.375,37.552-51.234a119.45,119.45,0,0,1,11.138-40.512C939.513,1386.905,943.094,1348.194,932.669,1309.046Z" fill="#7d97f4"/>
      <path id="Path_929" data-name="Path 929" d="M764.768,1117.278c12.794,29.553,24.628,59.493,36.149,89.556,2.883,7.514,5.645,15.074,8.432,22.625l4.179,11.328,4.083,11.362c2.693,7.585,5.491,15.133,8.1,22.749l7.823,22.847c5.021,15.3,10.171,30.552,14.907,45.943,2.379,7.692,4.907,15.335,7.13,23.076l6.774,23.184c8.718,31,16.662,62.238,23.01,93.815l-1.358.287-5.649-23.444-1.4-5.863-1.546-5.827-3.112-11.648-3.09-11.651c-1.023-3.885-2.191-7.733-3.279-11.6-2.227-7.722-4.394-15.461-6.672-23.168-9.31-30.772-19.03-61.42-29.38-91.864-5.292-15.182-10.453-30.408-15.85-45.555L810,1242.059l-4.112-11.337c-2.737-7.56-5.474-15.119-8.287-22.652q-8.247-22.666-16.834-45.212-8.475-22.586-17.282-45.047Z" fill="#bdd0fb"/>
    </g>
    <g id="Group_77" data-name="Group 77">
      <path id="Path_930" data-name="Path 930" d="M813.164,1356.571c-20.008-21.131-44.956-33.646-68.755-36.616a82.722,82.722,0,0,1-54.282-30.014q-2.118-2.634-4.5-5.154c-24.063-25.413-59.1-31.306-78.263-13.163s-15.186,53.452,8.877,78.865a82.193,82.193,0,0,0,15.908,13.1,83.149,83.149,0,0,1,36.557,49.1c4.775,18.276,14.79,36.626,29.791,52.468,22.372,23.627,50.922,36.485,77.135,37.27a81.314,81.314,0,0,1,28.891,6.207c15.209,6.357,31.594,4.908,42.351-5.278,11.6-10.988,13.412-29.069,6.126-45.653a86.819,86.819,0,0,1-6.971-29.686C844.552,1403.86,833.394,1377.934,813.164,1356.571Z" fill="#91b3fa"/>
      <path id="Path_931" data-name="Path 931" d="M639.67,1292.305c18.406,14.425,36.336,29.429,54.11,44.62,4.445,3.795,8.828,7.662,13.224,11.514l6.593,5.78,6.545,5.835c4.348,3.907,8.751,7.753,13.055,11.709l12.913,11.867c8.508,8.02,17.084,15.968,25.443,24.147,4.185,4.083,8.449,8.084,12.551,12.252l12.362,12.445c16.315,16.757,32.217,33.933,47.222,51.876l-.766.653-11.736-13-2.926-3.255-3.007-3.183-6.025-6.352-6.013-6.362c-2-2.125-4.079-4.175-6.115-6.266-4.1-4.155-8.166-8.341-12.292-12.469q-24.918-24.609-50.6-48.431c-8.641-7.853-17.213-15.78-25.908-23.574l-6.506-5.863-6.554-5.809c-4.367-3.875-8.735-7.75-13.141-11.581q-13.121-11.606-26.416-23.016-13.238-11.474-26.643-22.755Z" fill="#bdd0fb"/>
    </g>
    <g id="Group_78" data-name="Group 78">
      <path id="Path_932" data-name="Path 932" d="M885.517,1446.33l-3.445-4.784a1,1,0,0,1,1.619-1.166l.005.006.028.04,3.352,4.731.028.039a.975.975,0,0,1-1.587,1.134Z" fill="#fff"/>
      <path id="Path_933" data-name="Path 933" d="M874.964,1429.756l-2.636-5.281a1.072,1.072,0,1,1,1.918-.958l0,.007.022.046,2.552,5.211.021.044a1.049,1.049,0,0,1-1.881.931Z" fill="#fff"/>
      <path id="Path_934" data-name="Path 934" d="M867.139,1411.724l-1.815-5.615a1.146,1.146,0,0,1,2.181-.7l0,.008.015.047,1.743,5.535.014.047a1.124,1.124,0,0,1-2.141.683Z" fill="#fff"/>
      <path id="Path_935" data-name="Path 935" d="M862.018,1392.746l-1.029-5.81a1.221,1.221,0,1,1,2.4-.425v.009l.008.047.968,5.724.008.047a1.2,1.2,0,0,1-2.361.408Z" fill="#fff"/>
      <path id="Path_936" data-name="Path 936" d="M859.463,1373.253l-.29-5.892a1.3,1.3,0,1,1,2.587-.128v.01l0,.046.242,5.8,0,.047a1.273,1.273,0,0,1-2.543.115Z" fill="#fff"/>
      <path id="Path_937" data-name="Path 937" d="M859.308,1353.595l.4-5.888a1.369,1.369,0,1,1,2.732.184v.01l0,.046L862,1353.74l0,.047a1.347,1.347,0,0,1-2.687-.192Z" fill="#fff"/>
      <path id="Path_938" data-name="Path 938" d="M861.4,1334.045l1.044-5.808a1.443,1.443,0,1,1,2.841.511l0,.011-.008.046-1.071,5.707-.009.046a1.421,1.421,0,0,1-2.795-.513Z" fill="#fff"/>
      <path id="Path_939" data-name="Path 939" d="M865.6,1314.836l1.664-5.663a1.518,1.518,0,0,1,2.913.856l0,.012-.014.046-1.68,5.557-.014.047a1.5,1.5,0,0,1-2.866-.855Z" fill="#fff"/>
      <path id="Path_940" data-name="Path 940" d="M871.863,1296.187l2.252-5.444a1.592,1.592,0,1,1,2.943,1.217l0,.012-.018.041-2.258,5.344-.018.041a1.57,1.57,0,0,1-2.9-1.211Z" fill="#fff"/>
      <path id="Path_941" data-name="Path 941" d="M879.956,1278.283l2.737-5.222a1.667,1.667,0,1,1,2.953,1.548l-.006.011-.02.038-2.737,5.125-.02.038a1.644,1.644,0,0,1-2.907-1.538Z" fill="#fff"/>
      <path id="Path_942" data-name="Path 942" d="M889.587,1261.157l3.157-4.977a1.741,1.741,0,1,1,2.94,1.865l-.007.012-.022.034-3.15,4.885-.022.034a1.719,1.719,0,0,1-2.9-1.853Z" fill="#fff"/>
      <path id="Path_943" data-name="Path 943" d="M900.54,1244.856l3.512-4.73a1.816,1.816,0,1,1,2.915,2.165l-.008.011-.023.029-3.5,4.643-.023.03a1.793,1.793,0,0,1-2.871-2.148Z" fill="#fff"/>
      <path id="Path_944" data-name="Path 944" d="M912.606,1229.372l3.807-4.491a1.89,1.89,0,1,1,2.883,2.444l-.009.011-.022.026-3.8,4.41-.022.026a1.867,1.867,0,0,1-2.839-2.426Z" fill="#fff"/>
      <path id="Path_945" data-name="Path 945" d="M925.594,1214.667l4.051-4.269a1.964,1.964,0,0,1,2.849,2.705l-.01.011-.021.022-4.041,4.193-.022.022a1.941,1.941,0,0,1-2.806-2.684Z" fill="#fff"/>
      <path id="Path_946" data-name="Path 946" d="M939.338,1200.682l4.249-4.066a2.038,2.038,0,0,1,2.819,2.945l-.011.012-.02.018-4.24,4-.02.018a2.016,2.016,0,0,1-2.777-2.923Z" fill="#fff"/>
      <path id="Path_947" data-name="Path 947" d="M953.7,1187.345l4.416-3.893a2.113,2.113,0,1,1,2.794,3.17l-.012.011-.018.016-4.41,3.827-.018.016a2.09,2.09,0,0,1-2.752-3.147Z" fill="#fff"/>
      <path id="Path_948" data-name="Path 948" d="M968.559,1174.572l4.533-3.73a2.187,2.187,0,1,1,2.779,3.378l-.012.011-.015.012-4.532,3.671-.015.012a2.165,2.165,0,0,1-2.738-3.354Z" fill="#fff"/>
      <path id="Path_949" data-name="Path 949" d="M983.8,1162.293l4.648-3.591a2.249,2.249,0,1,1,2.75,3.56l-.008.007-.015.011-4.632,3.547-.015.012a2.237,2.237,0,0,1-2.728-3.546Z" fill="#fff"/>
      <path id="Path_950" data-name="Path 950" d="M999.411,1150.481l4.747-3.458a2.292,2.292,0,0,1,2.7,3.705l-.008.005-.016.011-4.73,3.415-.016.011a2.278,2.278,0,0,1-2.675-3.689Z" fill="#fff"/>
      <path id="Path_951" data-name="Path 951" d="M1015.344,1139.11l4.84-3.325a2.333,2.333,0,0,1,2.643,3.845l-.009.006-.015.01-4.823,3.284-.015.011a2.321,2.321,0,0,1-2.621-3.831Z" fill="#fff"/>
      <path id="Path_952" data-name="Path 952" d="M1031.578,1128.176l4.926-3.2a2.375,2.375,0,0,1,2.585,3.984l-.008.005-.016.01-4.908,3.156-.016.01a2.362,2.362,0,0,1-2.563-3.969Z" fill="#fff"/>
      <path id="Path_953" data-name="Path 953" d="M1048.091,1117.67l5-3.07a2.417,2.417,0,1,1,2.527,4.12l-.009.005-.015.01-4.987,3.03-.015.008a2.4,2.4,0,0,1-2.505-4.1Z" fill="#fff"/>
      <path id="Path_954" data-name="Path 954" d="M1064.86,1107.582l5.078-2.947a2.458,2.458,0,1,1,2.467,4.253l-.009.005-.015.009-5.06,2.907-.015.009a2.446,2.446,0,0,1-2.446-4.236Z" fill="#fff"/>
      <path id="Path_955" data-name="Path 955" d="M1081.865,1097.9l5.145-2.826a2.5,2.5,0,0,1,2.408,4.382l-.01.005-.014.008-5.127,2.789-.015.008a2.488,2.488,0,0,1-2.387-4.366Z" fill="#fff"/>
      <path id="Path_956" data-name="Path 956" d="M1099.087,1088.613l5.206-2.711a2.542,2.542,0,1,1,2.349,4.508l-.01.005-.015.008-5.188,2.674-.015.007a2.529,2.529,0,0,1-2.327-4.491Z" fill="#fff"/>
      <path id="Path_957" data-name="Path 957" d="M1116.507,1079.706l5.262-2.6a2.584,2.584,0,1,1,2.289,4.633l-.01,0-.014.008-5.244,2.563-.015.007a2.571,2.571,0,0,1-2.268-4.614Z" fill="#fff"/>
      <path id="Path_958" data-name="Path 958" d="M1134.107,1071.163l5.312-2.494a2.626,2.626,0,0,1,2.232,4.754l-.011,0-.013.007-5.3,2.458-.014.006a2.613,2.613,0,0,1-2.21-4.735Z" fill="#fff"/>
      <path id="Path_959" data-name="Path 959" d="M1151.87,1062.97l5.359-2.392a2.667,2.667,0,0,1,2.174,4.872l-.01,0-.013.006-5.342,2.357-.014.006a2.655,2.655,0,0,1-2.154-4.853Z" fill="#fff"/>
      <path id="Path_960" data-name="Path 960" d="M1169.782,1055.112l5.4-2.3a2.709,2.709,0,1,1,2.119,4.987l-.01.005-.013.005-5.384,2.261-.013.006a2.7,2.7,0,0,1-2.1-4.968Z" fill="#fff"/>
      <path id="Path_961" data-name="Path 961" d="M1187.828,1047.57l5.437-2.2a2.751,2.751,0,0,1,2.066,5.1l-.011,0-.012.005-5.422,2.169-.013.006a2.739,2.739,0,0,1-2.045-5.081Z" fill="#fff"/>
      <path id="Path_962" data-name="Path 962" d="M1205.994,1040.329l5.471-2.116a2.793,2.793,0,1,1,2.015,5.21l-.011,0-.012.005-5.457,2.083-.012.005a2.78,2.78,0,0,1-1.994-5.191Z" fill="#fff"/>
      <path id="Path_963" data-name="Path 963" d="M1224.269,1033.372l5.493-2.031a2.835,2.835,0,0,1,1.966,5.318l-.011,0-.011,0-5.48,2-.012.005a2.822,2.822,0,0,1-1.945-5.3Z" fill="#fff"/>
      <path id="Path_964" data-name="Path 964" d="M1242.632,1026.686l5.527-1.957a2.876,2.876,0,0,1,1.92,5.423l-.012.005-.011,0-5.513,1.925-.011,0a2.864,2.864,0,0,1-1.9-5.4Z" fill="#fff"/>
      <path id="Path_965" data-name="Path 965" d="M1261.088,1020.247l5.556-1.886a2.918,2.918,0,0,1,1.876,5.526l-.011,0-.011,0-5.543,1.856-.01,0a2.905,2.905,0,0,1-1.857-5.506Z" fill="#fff"/>
      <path id="Path_966" data-name="Path 966" d="M1279.627,1014.04l5.581-1.821a2.96,2.96,0,1,1,1.836,5.628l-.012,0-.01,0-5.569,1.791-.01,0a2.947,2.947,0,0,1-1.816-5.608Z" fill="#fff"/>
      <path id="Path_967" data-name="Path 967" d="M1298.238,1008.048l5.593-1.758a3,3,0,0,1,1.8,5.728l-.022.007-5.583,1.727a2.989,2.989,0,0,1-1.788-5.7Z" fill="#fff"/>
      <path id="Path_968" data-name="Path 968" d="M1316.9,1002.258l5.61-1.7a3.043,3.043,0,1,1,1.766,5.825l-.021.007-5.6,1.671a3.031,3.031,0,0,1-1.755-5.8Z" fill="#fff"/>
      <path id="Path_969" data-name="Path 969" d="M1335.622,996.65l5.625-1.648a3.085,3.085,0,0,1,1.736,5.921l-.021.006-5.616,1.621a3.073,3.073,0,0,1-1.724-5.9Z" fill="#fff"/>
      <path id="Path_970" data-name="Path 970" d="M1354.39,991.221l5.64-1.6a3.108,3.108,0,0,1,1.69,5.982l-.011,0-5.628,1.582a3.1,3.1,0,1,1-1.691-5.972Z" fill="#fff"/>
      <path id="Path_971" data-name="Path 971" d="M1373.2,985.957l5.651-1.552a3.121,3.121,0,1,1,1.653,6.02l-.01,0-5.641,1.541a3.117,3.117,0,1,1-1.653-6.011Z" fill="#fff"/>
      <path id="Path_972" data-name="Path 972" d="M1392.05,980.827l5.669-1.518a3.136,3.136,0,1,1,1.622,6.058l-.01,0-5.66,1.507a3.131,3.131,0,1,1-1.621-6.049Z" fill="#fff"/>
      <path id="Path_973" data-name="Path 973" d="M1410.935,975.811l5.672-1.484a3.149,3.149,0,1,1,1.595,6.093l-.009,0-5.665,1.474a3.146,3.146,0,0,1-1.593-6.086Z" fill="#fff"/>
      <path id="Path_974" data-name="Path 974" d="M1429.841,970.9l5.673-1.457a3.163,3.163,0,1,1,1.573,6.128h-.007l-5.669,1.448a3.159,3.159,0,0,1-1.57-6.12Z" fill="#fff"/>
      <path id="Path_975" data-name="Path 975" d="M1448.764,966.063l5.683-1.44a3.177,3.177,0,0,1,1.561,6.159l-.007,0-5.68,1.431a3.173,3.173,0,0,1-1.557-6.152Z" fill="#fff"/>
      <path id="Path_976" data-name="Path 976" d="M1467.7,961.282l5.678-1.426a3.191,3.191,0,1,1,1.555,6.189l-.006,0-5.678,1.417a3.187,3.187,0,0,1-1.549-6.182Z" fill="#fff"/>
      <path id="Path_977" data-name="Path 977" d="M1486.626,956.537l5.68-1.42a3.2,3.2,0,0,1,1.554,6.218l-.005,0-5.681,1.411a3.2,3.2,0,0,1-1.548-6.211Z" fill="#fff"/>
      <path id="Path_978" data-name="Path 978" d="M1505.557,951.808l5.679-1.419a3.219,3.219,0,1,1,1.561,6.245h-.005l-5.681,1.411a3.214,3.214,0,0,1-1.554-6.238Z" fill="#fff"/>
      <path id="Path_979" data-name="Path 979" d="M1524.485,947.076l5.677-1.422a3.232,3.232,0,1,1,1.574,6.27h-.006l-5.681,1.415a3.228,3.228,0,0,1-1.564-6.264Z" fill="#fff"/>
      <path id="Path_980" data-name="Path 980" d="M1543.4,942.324l5.673-1.433a3.246,3.246,0,0,1,1.594,6.294l-.007,0-5.679,1.425a3.242,3.242,0,0,1-1.581-6.288Z" fill="#fff"/>
      <path id="Path_981" data-name="Path 981" d="M1562.31,937.532l5.668-1.448a3.26,3.26,0,1,1,1.62,6.316l-.008,0-5.676,1.441a3.256,3.256,0,0,1-1.6-6.311Z" fill="#fff"/>
      <path id="Path_982" data-name="Path 982" d="M1581.2,932.683l5.662-1.468a3.273,3.273,0,0,1,1.652,6.335l-.009,0-5.672,1.463a3.27,3.27,0,0,1-1.633-6.332Z" fill="#fff"/>
      <path id="Path_983" data-name="Path 983" d="M1600.063,927.758l5.654-1.495a3.287,3.287,0,1,1,1.69,6.354l-.009,0-5.666,1.489a3.283,3.283,0,1,1-1.669-6.351Z" fill="#fff"/>
      <path id="Path_984" data-name="Path 984" d="M1618.9,922.739l5.645-1.526a3.3,3.3,0,1,1,1.736,6.37l-.011,0-5.658,1.522a3.3,3.3,0,1,1-1.712-6.369Z" fill="#fff"/>
      <path id="Path_985" data-name="Path 985" d="M1637.7,917.608l5.634-1.563a3.315,3.315,0,1,1,1.787,6.384l-.011,0-5.65,1.559a3.311,3.311,0,1,1-1.76-6.384Z" fill="#fff"/>
      <path id="Path_986" data-name="Path 986" d="M1656.466,912.346l5.62-1.606a3.329,3.329,0,0,1,1.846,6.4l-.013,0-5.638,1.6a3.325,3.325,0,1,1-1.815-6.4Z" fill="#fff"/>
      <path id="Path_987" data-name="Path 987" d="M1675.183,906.936l5.6-1.655a3.343,3.343,0,1,1,1.911,6.407l-.013,0-5.626,1.652a3.339,3.339,0,1,1-1.877-6.408Z" fill="#fff"/>
      <path id="Path_988" data-name="Path 988" d="M1693.847,901.358l5.588-1.709.01,0a3.357,3.357,0,1,1,1.963,6.42l0,0-5.61,1.706a3.352,3.352,0,0,1-1.952-6.414Z" fill="#fff"/>
      <path id="Path_989" data-name="Path 989" d="M1712.452,895.594l5.568-1.767.011,0a3.371,3.371,0,0,1,2.04,6.425l-.005,0-5.592,1.766a3.366,3.366,0,1,1-2.028-6.42Z" fill="#fff"/>
      <path id="Path_990" data-name="Path 990" d="M1730.988,889.628l5.555-1.835.012-.005a3.384,3.384,0,0,1,2.123,6.427l0,0-5.581,1.835a3.38,3.38,0,0,1-2.112-6.422Z" fill="#fff"/>
      <path id="Path_991" data-name="Path 991" d="M1749.456,883.436l5.527-1.9.013-.005a3.4,3.4,0,1,1,2.214,6.426h-.005l-5.555,1.906a3.394,3.394,0,0,1-2.2-6.421Z" fill="#fff"/>
      <path id="Path_992" data-name="Path 992" d="M1767.842,877l5.495-1.978.014-.005a3.412,3.412,0,0,1,2.312,6.421h-.005l-5.525,1.981a3.408,3.408,0,0,1-2.3-6.416Z" fill="#fff"/>
      <path id="Path_993" data-name="Path 993" d="M1786.121,870.318l5.461-2.058.014-.006a3.426,3.426,0,1,1,2.416,6.412h0l-5.494,2.062a3.422,3.422,0,0,1-2.4-6.408Z" fill="#fff"/>
      <path id="Path_994" data-name="Path 994" d="M1804.282,863.361l5.424-2.143.016-.006a3.44,3.44,0,1,1,2.527,6.4l-.005,0-5.458,2.146a3.435,3.435,0,1,1-2.515-6.394Z" fill="#fff"/>
      <path id="Path_995" data-name="Path 995" d="M1822.33,856.111l5.384-2.232.017-.007a3.454,3.454,0,1,1,2.645,6.381l-.005,0-5.42,2.238a3.45,3.45,0,0,1-2.633-6.377Z" fill="#fff"/>
      <path id="Path_996" data-name="Path 996" d="M1840.245,848.555l5.342-2.327.018-.008a3.467,3.467,0,0,1,2.769,6.358l-.005,0-5.38,2.335a3.463,3.463,0,1,1-2.756-6.354Z" fill="#fff"/>
      <path id="Path_997" data-name="Path 997" d="M1858.016,840.676l5.3-2.426.018-.008a3.481,3.481,0,1,1,2.9,6.329l0,0-5.336,2.436a3.477,3.477,0,1,1-2.888-6.326Z" fill="#fff"/>
      <path id="Path_998" data-name="Path 998" d="M1875.629,832.46l5.252-2.52.019-.009a3.483,3.483,0,0,1,3.022,6.276l-5.284,2.553a3.491,3.491,0,0,1-3.037-6.287l.009,0Z" fill="#fff"/>
      <path id="Path_999" data-name="Path 999" d="M1893.09,823.93l5.2-2.628.02-.01a3.452,3.452,0,0,1,3.123,6.158l-5.231,2.664a3.462,3.462,0,1,1-3.142-6.169l.009-.005Z" fill="#fff"/>
      <path id="Path_1000" data-name="Path 1000" d="M1910.366,815.037l5.146-2.742.02-.011a3.422,3.422,0,0,1,3.228,6.035l-5.178,2.78a3.431,3.431,0,0,1-3.246-6.046l.01-.005Z" fill="#fff"/>
      <path id="Path_1001" data-name="Path 1001" d="M1927.432,805.755l5.068-2.87.026-.015a3.391,3.391,0,0,1,3.351,5.9l-5.109,2.915a3.4,3.4,0,0,1-3.37-5.908l.009-.005Z" fill="#fff"/>
      <path id="Path_1002" data-name="Path 1002" d="M1944.22,796.014l4.973-3.023.029-.018a3.36,3.36,0,0,1,3.5,5.737l-5.021,3.075a3.37,3.37,0,1,1-3.52-5.748l.009-.005Z" fill="#fff"/>
      <path id="Path_1003" data-name="Path 1003" d="M1960.665,785.737l4.855-3.2.033-.021a3.33,3.33,0,0,1,3.673,5.556l-4.91,3.257a3.339,3.339,0,1,1-3.692-5.565l.008-.006Z" fill="#fff"/>
      <path id="Path_1004" data-name="Path 1004" d="M1976.69,774.847l4.712-3.4.036-.026a3.3,3.3,0,0,1,3.868,5.347l-4.774,3.464a3.309,3.309,0,0,1-3.887-5.356l.009-.006Z" fill="#fff"/>
      <path id="Path_1005" data-name="Path 1005" d="M1992.2,763.273l4.54-3.615.039-.032a3.269,3.269,0,0,1,4.081,5.107l-4.606,3.693a3.278,3.278,0,0,1-4.1-5.115l.008-.007Z" fill="#fff"/>
      <path id="Path_1006" data-name="Path 1006" d="M2007.1,750.948l4.337-3.858.042-.037a3.238,3.238,0,0,1,4.312,4.832l-4.408,3.946a3.247,3.247,0,0,1-4.332-4.839l.007-.007Z" fill="#fff"/>
      <path id="Path_1007" data-name="Path 1007" d="M2021.269,737.809l4.082-4.1.043-.045a3.208,3.208,0,0,1,4.555,4.519l-4.155,4.2a3.217,3.217,0,1,1-4.575-4.524l.007-.007Z" fill="#fff"/>
      <path id="Path_1008" data-name="Path 1008" d="M2034.558,723.824l3.8-4.367.045-.051a3.177,3.177,0,0,1,4.8,4.162l-3.871,4.48a3.187,3.187,0,0,1-4.823-4.166l.007-.008Z" fill="#fff"/>
      <path id="Path_1009" data-name="Path 1009" d="M2046.837,708.96l3.462-4.627.043-.057a3.147,3.147,0,0,1,5.045,3.762l-3.534,4.753a3.156,3.156,0,1,1-5.065-3.766l.006-.008Z" fill="#fff"/>
      <path id="Path_1010" data-name="Path 1010" d="M2057.926,693.231l3.055-4.9.044-.07a3.116,3.116,0,0,1,5.292,3.292l-3.128,5.045a3.125,3.125,0,1,1-5.312-3.293l.005-.008Z" fill="#fff"/>
      <path id="Path_1011" data-name="Path 1011" d="M2067.609,676.612l2.631-5.139.037-.072a3.06,3.06,0,0,1,5.461,2.763l-2.655,5.309a3.088,3.088,0,0,1-5.524-2.763l.013-.026Z" fill="#fff"/>
      <path id="Path_1012" data-name="Path 1012" d="M2075.841,659.224l2.162-5.353.03-.075a2.968,2.968,0,0,1,5.514,2.2l-2.171,5.524a3,3,0,1,1-5.576-2.191l.01-.026Z" fill="#fff"/>
      <path id="Path_1013" data-name="Path 1013" d="M2082.469,641.165l1.657-5.529.023-.079a2.875,2.875,0,0,1,5.516,1.625l-1.65,5.7a2.9,2.9,0,1,1-5.578-1.614l.008-.026Z" fill="#fff"/>
      <path id="Path_1014" data-name="Path 1014" d="M2087.362,622.568l1.107-5.662.016-.084a2.783,2.783,0,0,1,5.467,1.042l-1.084,5.839a2.811,2.811,0,1,1-5.527-1.026l0-.027Z" fill="#fff"/>
      <path id="Path_1015" data-name="Path 1015" d="M2090.364,603.584l.506-5.743.008-.089a2.69,2.69,0,0,1,5.362.448l-.465,5.923a2.719,2.719,0,0,1-5.421-.426l0-.025Z" fill="#fff"/>
      <path id="Path_1016" data-name="Path 1016" d="M2091.3,584.393l-.148-5.752,0-.093a2.6,2.6,0,0,1,5.193-.158l.209,5.935a2.626,2.626,0,0,1-5.249.185v-.025Z" fill="#fff"/>
      <path id="Path_1017" data-name="Path 1017" d="M2090,565.252l-.851-5.694-.014-.095a2.505,2.505,0,0,1,4.952-.764l.935,5.876a2.533,2.533,0,1,1-5,.8l0-.024Z" fill="#fff"/>
      <path id="Path_1018" data-name="Path 1018" d="M2086.308,546.43l-1.585-5.533-.027-.094a2.413,2.413,0,0,1,4.632-1.352l1.694,5.705a2.441,2.441,0,0,1-4.68,1.39l-.007-.022Z" fill="#fff"/>
      <path id="Path_1019" data-name="Path 1019" d="M2080.146,528.291l-2.372-5.228-.046-.1a2.32,2.32,0,0,1,4.216-1.938l2.516,5.409a2.348,2.348,0,1,1-4.258,1.981l-.01-.02Z" fill="#fff"/>
      <path id="Path_1020" data-name="Path 1020" d="M2071.3,511.324l-3.15-4.814-.055-.084a2.225,2.225,0,0,1,3.711-2.456l3.312,4.948a2.256,2.256,0,0,1-3.75,2.51l-.013-.02Z" fill="#fff"/>
      <path id="Path_1021" data-name="Path 1021" d="M2060.014,495.818l-3.811-4.325-.059-.067a2.074,2.074,0,0,1,3.091-2.766l4,4.4a2.12,2.12,0,1,1-3.137,2.852l-.014-.016Z" fill="#fff"/>
      <path id="Path_1022" data-name="Path 1022" d="M2046.616,482.053l-4.388-3.75-.063-.052a1.923,1.923,0,0,1,2.476-2.943l4.572,3.786a1.968,1.968,0,1,1-2.511,3.032l-.015-.013Z" fill="#fff"/>
      <path id="Path_1023" data-name="Path 1023" d="M2031.393,470.3l-4.88-3.088-.066-.042a1.771,1.771,0,0,1,1.871-3.008l5.062,3.094a1.817,1.817,0,0,1-1.9,3.1l-.016-.01Z" fill="#fff"/>
      <path id="Path_1024" data-name="Path 1024" d="M2014.626,460.869l-5.289-2.326-.069-.03a1.62,1.62,0,0,1,1.281-2.976l5.465,2.3a1.666,1.666,0,0,1-1.294,3.07l-.016-.006Z" fill="#fff"/>
      <path id="Path_1025" data-name="Path 1025" d="M1996.61,454.114l-5.595-1.442-.073-.02a1.469,1.469,0,0,1,.712-2.85l5.764,1.392a1.515,1.515,0,1,1-.711,2.945l-.015,0Z" fill="#fff"/>
      <path id="Path_1026" data-name="Path 1026" d="M1977.723,450.453l-5.762-.444-.073-.006a1.3,1.3,0,0,1,.174-2.6l5.918.334a1.362,1.362,0,0,1-.153,2.719h-.022Z" fill="#fff"/>
      <path id="Path_1027" data-name="Path 1027" d="M1958.48,450.254l-5.747.673-.066.008a1.1,1.1,0,0,1-.278-2.177l5.866-.811a1.159,1.159,0,1,1,.317,2.3l-.018,0Z" fill="#fff"/>
    </g>
    <g id="Group_79" data-name="Group 79">
      <path id="Path_1028" data-name="Path 1028" d="M1393.526,1020.39l5.334-2.437a1.029,1.029,0,0,1,.855,1.872l-.012.005-.015.006-5.358,2.332-.009,0a.976.976,0,0,1-.8-1.782Z" fill="#fff"/>
      <path id="Path_1029" data-name="Path 1029" d="M1411.4,1012.473l5.411-2.263a1.205,1.205,0,1,1,.93,2.224l-.014.006-.017.006-5.43,2.156-.01,0a1.152,1.152,0,0,1-.87-2.133Z" fill="#fff"/>
      <path id="Path_1030" data-name="Path 1030" d="M1429.517,1005.128l5.479-2.095a1.381,1.381,0,1,1,.987,2.58l-.017.006-.018.007-5.493,1.988-.012,0a1.328,1.328,0,0,1-.926-2.49Z" fill="#fff"/>
      <path id="Path_1031" data-name="Path 1031" d="M1447.851,998.331l5.539-1.929a1.55,1.55,0,1,1,1.02,2.927l-.015.006-.02.006-5.544,1.836-.012,0a1.505,1.505,0,0,1-.968-2.85Z" fill="#fff"/>
      <path id="Path_1032" data-name="Path 1032" d="M1466.382,992.091l5.583-1.772a1.681,1.681,0,0,1,1.017,3.205l-.013.005-.021.006-5.582,1.688-.012,0a1.642,1.642,0,0,1-.972-3.136Z" fill="#fff"/>
      <path id="Path_1033" data-name="Path 1033" d="M1485.064,986.345l5.635-1.634a1.812,1.812,0,0,1,1.01,3.481l-.014,0-.022.006-5.631,1.552-.012,0a1.774,1.774,0,0,1-.966-3.413Z" fill="#fff"/>
      <path id="Path_1034" data-name="Path 1034" d="M1503.888,981.049l5.669-1.507a1.944,1.944,0,0,1,1,3.758l-.015.005-.023.005-5.665,1.424-.012,0a1.9,1.9,0,0,1-.953-3.688Z" fill="#fff"/>
      <path id="Path_1035" data-name="Path 1035" d="M1522.822,976.167l5.7-1.389a2.076,2.076,0,0,1,.983,4.034l-.016,0-.023.005-5.694,1.306-.011,0a2.036,2.036,0,0,1-.938-3.963Z" fill="#fff"/>
      <path id="Path_1036" data-name="Path 1036" d="M1541.847,971.662l5.723-1.283a2.207,2.207,0,1,1,.967,4.306l-.018,0-.023,0-5.717,1.2-.011,0a2.168,2.168,0,0,1-.921-4.237Z" fill="#fff"/>
      <path id="Path_1037" data-name="Path 1037" d="M1560.947,967.494l5.733-1.189a2.339,2.339,0,0,1,.95,4.58l-.019,0-.023,0L1561.861,972l-.011,0a2.3,2.3,0,0,1-.9-4.509Z" fill="#fff"/>
      <path id="Path_1038" data-name="Path 1038" d="M1580.1,963.624l5.751-1.109a2.47,2.47,0,1,1,.935,4.85l-.042.009-5.747,1.027a2.43,2.43,0,0,1-.9-4.777Z" fill="#fff"/>
      <path id="Path_1039" data-name="Path 1039" d="M1599.288,960.01l5.767-1.04a2.6,2.6,0,0,1,.924,5.12l-.042.007-5.764.96a2.562,2.562,0,0,1-.885-5.047Z" fill="#fff"/>
      <path id="Path_1040" data-name="Path 1040" d="M1618.527,956.609l5.78-.985a2.733,2.733,0,0,1,.918,5.389l-.043.007-5.779.9a2.694,2.694,0,0,1-.876-5.316Z" fill="#fff"/>
      <path id="Path_1041" data-name="Path 1041" d="M1637.808,953.415l5.791-.926a2.815,2.815,0,0,1,.888,5.56l-.028.005-5.787.876a2.791,2.791,0,0,1-.864-5.515Z" fill="#fff"/>
      <path id="Path_1042" data-name="Path 1042" d="M1657.1,950.372l5.8-.894a2.9,2.9,0,0,1,.882,5.724l-.027,0-5.8.845a2.872,2.872,0,0,1-.856-5.679Z" fill="#fff"/>
      <path id="Path_1043" data-name="Path 1043" d="M1676.41,947.423l5.8-.874a2.976,2.976,0,0,1,.886,5.886l-.026,0-5.8.825a2.952,2.952,0,0,1-.857-5.841Z" fill="#fff"/>
      <path id="Path_1044" data-name="Path 1044" d="M1695.719,944.527l5.8-.865a3.056,3.056,0,0,1,.9,6.045l-.025,0-5.805.818a3.032,3.032,0,0,1-.871-6Z" fill="#fff"/>
      <path id="Path_1045" data-name="Path 1045" d="M1715.024,941.643l5.795-.869a3.136,3.136,0,1,1,.934,6.2l-.027,0-5.8.822a3.112,3.112,0,0,1-.9-6.16Z" fill="#fff"/>
      <path id="Path_1046" data-name="Path 1046" d="M1734.318,938.732l5.788-.886a3.217,3.217,0,0,1,.98,6.359l-.03.005-5.8.838a3.192,3.192,0,0,1-.936-6.316Z" fill="#fff"/>
      <path id="Path_1047" data-name="Path 1047" d="M1753.6,935.751l5.779-.913a3.3,3.3,0,0,1,1.041,6.512l-.033,0-5.8.868a3.273,3.273,0,0,1-.99-6.471Z" fill="#fff"/>
      <path id="Path_1048" data-name="Path 1048" d="M1772.843,932.663l5.765-.956.009,0a3.378,3.378,0,1,1,1.105,6.664l-.027,0-5.791.912a3.353,3.353,0,0,1-1.061-6.622Z" fill="#fff"/>
      <path id="Path_1049" data-name="Path 1049" d="M1792.045,929.408l5.753-1.017.011,0a3.458,3.458,0,0,1,1.2,6.81l-.028.005-5.784.973a3.434,3.434,0,0,1-1.169-6.767Z" fill="#fff"/>
      <path id="Path_1050" data-name="Path 1050" d="M1811.2,925.94l5.737-1.086.014,0a3.538,3.538,0,0,1,1.317,6.953l-.029.005-5.774,1.044a3.514,3.514,0,0,1-1.281-6.91Z" fill="#fff"/>
      <path id="Path_1051" data-name="Path 1051" d="M1830.309,922.228l5.72-1.167.016,0a3.618,3.618,0,0,1,1.446,7.091l-.029.005-5.761,1.126a3.594,3.594,0,0,1-1.409-7.049Z" fill="#fff"/>
      <path id="Path_1052" data-name="Path 1052" d="M1849.351,918.236l5.693-1.255.018,0a3.7,3.7,0,1,1,1.593,7.223l-.029.007-5.74,1.216a3.674,3.674,0,0,1-1.555-7.182Z" fill="#fff"/>
      <path id="Path_1053" data-name="Path 1053" d="M1868.3,913.936l5.67-1.356.021-.005a3.779,3.779,0,1,1,1.758,7.35l-.031.008L1870,921.252a3.755,3.755,0,0,1-1.718-7.311Z" fill="#fff"/>
      <path id="Path_1054" data-name="Path 1054" d="M1887.169,909.29l5.639-1.467.023-.005a3.859,3.859,0,1,1,1.942,7.47l-.03.008-5.7,1.431a3.835,3.835,0,0,1-1.9-7.431Z" fill="#fff"/>
      <path id="Path_1055" data-name="Path 1055" d="M1905.934,904.263l5.6-1.585.026-.007a3.939,3.939,0,1,1,2.146,7.58l-.031.01-5.665,1.552a3.915,3.915,0,0,1-2.1-7.542Z" fill="#fff"/>
      <path id="Path_1056" data-name="Path 1056" d="M1924.579,898.854l5.57-1.7.028-.009a3.973,3.973,0,1,1,2.322,7.6l-.01,0-5.631,1.7a3.965,3.965,0,0,1-2.3-7.59Z" fill="#fff"/>
      <path id="Path_1057" data-name="Path 1057" d="M1943.092,893.018l5.522-1.844.03-.01a4,4,0,1,1,2.533,7.588l-.01,0-5.588,1.849a3.992,3.992,0,0,1-2.507-7.58Z" fill="#fff"/>
      <path id="Path_1058" data-name="Path 1058" d="M1961.437,886.7l5.466-1.994.033-.012a4.026,4.026,0,1,1,2.759,7.565l-.01,0-5.537,2a4.018,4.018,0,1,1-2.733-7.557Z" fill="#fff"/>
      <path id="Path_1059" data-name="Path 1059" d="M1979.586,879.869l5.4-2.154.034-.014a4.053,4.053,0,0,1,3,7.529l-.011,0-5.477,2.167a4.045,4.045,0,1,1-2.976-7.522Z" fill="#fff"/>
      <path id="Path_1060" data-name="Path 1060" d="M1997.511,872.493l5.328-2.324.037-.016a4.079,4.079,0,1,1,3.261,7.478l-.01,0-5.408,2.341a4.071,4.071,0,1,1-3.235-7.472Z" fill="#fff"/>
      <path id="Path_1061" data-name="Path 1061" d="M2015.176,864.541l5.244-2.5.039-.018a4.106,4.106,0,1,1,3.536,7.411l-.01.005-5.329,2.524a4.1,4.1,0,0,1-3.508-7.407Z" fill="#fff"/>
      <path id="Path_1062" data-name="Path 1062" d="M2032.548,855.987l5.148-2.687.041-.022a4.132,4.132,0,0,1,3.824,7.327l-.01.005-5.237,2.715a4.124,4.124,0,1,1-3.8-7.322Z" fill="#fff"/>
      <path id="Path_1063" data-name="Path 1063" d="M2049.586,846.807l5.041-2.879.042-.024a4.159,4.159,0,1,1,4.125,7.223l-.01.005-5.132,2.913a4.151,4.151,0,0,1-4.1-7.22Z" fill="#fff"/>
      <path id="Path_1064" data-name="Path 1064" d="M2066.251,836.982l4.92-3.075.043-.027a4.185,4.185,0,1,1,4.437,7.1l-.01.006-5.014,3.116a4.178,4.178,0,0,1-4.41-7.1Z" fill="#fff"/>
      <path id="Path_1065" data-name="Path 1065" d="M2082.5,826.5l4.787-3.275.044-.031a4.212,4.212,0,1,1,4.757,6.953l-.01.007-4.883,3.321a4.2,4.2,0,1,1-4.729-6.952Z" fill="#fff"/>
      <path id="Path_1066" data-name="Path 1066" d="M2098.289,815.346l4.64-3.476.044-.033a4.239,4.239,0,1,1,5.082,6.785l-.009.007-4.739,3.529a4.23,4.23,0,0,1-5.053-6.786Z" fill="#fff"/>
      <path id="Path_1067" data-name="Path 1067" d="M2113.576,803.526l4.483-3.676.044-.036a4.265,4.265,0,0,1,5.409,6.6l-.009.007-4.58,3.736a4.257,4.257,0,0,1-5.381-6.6Z" fill="#fff"/>
      <path id="Path_1068" data-name="Path 1068" d="M2128.319,791.045l4.3-3.873.046-.042a4.292,4.292,0,1,1,5.741,6.381l-.008.008-4.408,3.944a4.283,4.283,0,0,1-5.713-6.384Z" fill="#fff"/>
      <path id="Path_1069" data-name="Path 1069" d="M2142.435,777.894l4.1-4.081.047-.047a4.318,4.318,0,0,1,6.092,6.122l-.008.008-4.208,4.164a4.31,4.31,0,0,1-6.064-6.127Z" fill="#fff"/>
      <path id="Path_1070" data-name="Path 1070" d="M2155.847,764.046l3.873-4.292.049-.053a4.345,4.345,0,1,1,6.45,5.823l-.008.008-3.982,4.388a4.337,4.337,0,0,1-6.423-5.83Z" fill="#fff"/>
      <path id="Path_1071" data-name="Path 1071" d="M2168.469,749.495l3.618-4.5.048-.061a4.372,4.372,0,1,1,6.815,5.477l-.008.009-3.727,4.613a4.363,4.363,0,0,1-6.787-5.485Z" fill="#fff"/>
      <path id="Path_1072" data-name="Path 1072" d="M2180.2,734.244l3.331-4.71.049-.068a4.4,4.4,0,1,1,7.181,5.079l-.007.009-3.441,4.838a4.39,4.39,0,1,1-7.154-5.089Z" fill="#fff"/>
      <path id="Path_1073" data-name="Path 1073" d="M2190.944,718.3l3.011-4.914.048-.077a4.424,4.424,0,0,1,7.544,4.624l-.006.011-3.12,5.059a4.416,4.416,0,1,1-7.518-4.637Z" fill="#fff"/>
      <path id="Path_1074" data-name="Path 1074" d="M2200.579,701.694l2.658-5.107.044-.085a4.451,4.451,0,1,1,7.9,4.109l-.006.011-2.761,5.27a4.443,4.443,0,0,1-7.871-4.123Z" fill="#fff"/>
      <path id="Path_1075" data-name="Path 1075" d="M2209,684.458l2.27-5.285.04-.094a4.478,4.478,0,0,1,8.228,3.535l0,.011-2.365,5.466a4.47,4.47,0,0,1-8.2-3.551Z" fill="#fff"/>
      <path id="Path_1076" data-name="Path 1076" d="M2216.08,666.658l1.856-5.432.032-.1a4.495,4.495,0,0,1,8.512,2.89c-.636,1.885-1.252,3.78-1.926,5.647a4.5,4.5,0,0,1-8.486-2.976Z" fill="#fff"/>
      <path id="Path_1077" data-name="Path 1077" d="M2221.745,648.388l1.4-5.569.028-.109a4.454,4.454,0,0,1,8.644,2.152l-1.43,5.793a4.466,4.466,0,0,1-8.672-2.14l0-.018Z" fill="#fff"/>
      <path id="Path_1078" data-name="Path 1078" d="M2225.856,629.7l.925-5.667.018-.111a4.414,4.414,0,0,1,8.715,1.4l-.937,5.891a4.426,4.426,0,1,1-8.742-1.389l0-.018Z" fill="#fff"/>
      <path id="Path_1079" data-name="Path 1079" d="M2228.374,610.734l.438-5.723.008-.114a4.374,4.374,0,0,1,8.723.649l-.43,5.951a4.386,4.386,0,1,1-8.749-.632v-.018Z" fill="#fff"/>
      <path id="Path_1080" data-name="Path 1080" d="M2229.253,591.629l-.045-5.736v-.119a4.3,4.3,0,0,1,8.6-.122l.122,5.97a4.339,4.339,0,0,1-8.676.178v-.03Z" fill="#fff"/>
      <path id="Path_1081" data-name="Path 1081" d="M2228.485,572.531l-.58-5.7-.012-.122a4.18,4.18,0,0,1,8.311-.9l.679,5.937a4.217,4.217,0,0,1-8.38.958l0-.03Z" fill="#fff"/>
      <path id="Path_1082" data-name="Path 1082" d="M2225.9,553.61,2224.756,548l-.026-.125a4.059,4.059,0,0,1,7.943-1.672l1.268,5.844a4.1,4.1,0,1,1-8,1.737l-.006-.028Z" fill="#fff"/>
      <path id="Path_1083" data-name="Path 1083" d="M2221.4,535.073l-1.733-5.452-.04-.128a3.928,3.928,0,0,1,7.469-2.437l1.9,5.677a3.974,3.974,0,1,1-7.537,2.523l-.012-.038Z" fill="#fff"/>
      <path id="Path_1084" data-name="Path 1084" d="M2214.93,517.137l-2.34-5.217-.056-.126a3.727,3.727,0,0,1,6.769-3.121l2.565,5.415a3.789,3.789,0,0,1-6.849,3.244l-.025-.054Z" fill="#fff"/>
      <path id="Path_1085" data-name="Path 1085" d="M2206.379,500.141l-3-4.853-.078-.125a3.526,3.526,0,0,1,5.959-3.772l3.262,5.038a3.588,3.588,0,0,1-6.024,3.9l-.03-.047Z" fill="#fff"/>
      <path id="Path_1086" data-name="Path 1086" d="M2195.6,484.464l-3.627-4.42-.088-.107a3.3,3.3,0,0,1,5.046-4.261l3.931,4.522a3.388,3.388,0,0,1-5.113,4.445c-.018-.02-.035-.041-.052-.062Z" fill="#fff"/>
      <path id="Path_1087" data-name="Path 1087" d="M2182.822,470.33l-4.207-3.884-.094-.088a3.023,3.023,0,0,1,4.037-4.5l4.511,3.932a3.109,3.109,0,0,1-4.086,4.687l-.056-.05Z" fill="#fff"/>
      <path id="Path_1088" data-name="Path 1088" d="M2168.179,458.1l-4.723-3.247-.1-.07a2.744,2.744,0,0,1,3.043-4.567l5.021,3.245a2.83,2.83,0,1,1-3.071,4.754l-.056-.038Z" fill="#fff"/>
      <path id="Path_1089" data-name="Path 1089" d="M2151.929,448.061l-5.156-2.519-.1-.051a2.36,2.36,0,0,1,1.986-4.28l5.466,2.406a2.478,2.478,0,0,1-2,4.536l-.08-.037Z" fill="#fff"/>
      <path id="Path_1090" data-name="Path 1090" d="M2134.295,440.673l-5.513-1.622-.1-.03a1.973,1.973,0,0,1,1.038-3.806l5.783,1.454a2.092,2.092,0,0,1-1.02,4.057l-.072-.02Z" fill="#fff"/>
      <path id="Path_1091" data-name="Path 1091" d="M2115.621,436.452l-5.73-.574-.093-.01a1.586,1.586,0,0,1,.254-3.162l5.94.359a1.7,1.7,0,1,1-.206,3.4l-.06,0Z" fill="#fff"/>
      <path id="Path_1092" data-name="Path 1092" d="M2096.438,435.8l-5.757.55-.068.006a1.088,1.088,0,0,1-.264-2.16l5.863-.876a1.246,1.246,0,0,1,.368,2.465l-.062.007Z" fill="#fff"/>
    </g>
  </g>
</svg>
