<svg xmlns="http://www.w3.org/2000/svg" xmlns:xlink="http://www.w3.org/1999/xlink" viewBox="0 0 3710 3710"><defs><style>.cls-1,.cls-10,.cls-18,.cls-22,.cls-40,.cls-57,.cls-58{fill:#fff;}.cls-2,.cls-3{opacity:0.3;}.cls-2{fill:url(#linear-gradient);}.cls-4{fill:url(#linear-gradient-2);}.cls-5{fill:url(#linear-gradient-3);}.cls-6{fill:url(#linear-gradient-4);}.cls-7{fill:url(#linear-gradient-5);}.cls-8{fill:url(#linear-gradient-6);}.cls-9{fill:url(#linear-gradient-7);}.cls-10{opacity:0.56;}.cls-11{fill:url(#linear-gradient-8);}.cls-12{fill:url(#linear-gradient-9);}.cls-13{fill:url(#linear-gradient-10);}.cls-14{fill:url(#linear-gradient-11);}.cls-15{fill:url(#linear-gradient-12);}.cls-16{fill:url(#linear-gradient-13);}.cls-17{fill:url(#linear-gradient-14);}.cls-18{opacity:0.5;}.cls-19{fill:url(#_3);}.cls-20{fill:url(#linear-gradient-15);}.cls-21{fill:url(#linear-gradient-16);}.cls-22{opacity:0.69;}.cls-23{fill:url(#linear-gradient-17);}.cls-24{fill:url(#linear-gradient-18);}.cls-25{fill:url(#linear-gradient-19);}.cls-26{fill:url(#linear-gradient-20);}.cls-27{fill:url(#linear-gradient-21);}.cls-28{fill:url(#linear-gradient-22);}.cls-29{fill:url(#linear-gradient-23);}.cls-30{fill:url(#linear-gradient-24);}.cls-31{fill:url(#linear-gradient-25);}.cls-32{fill:url(#linear-gradient-26);}.cls-33{fill:url(#linear-gradient-27);}.cls-34{fill:url(#linear-gradient-28);}.cls-35{fill:url(#linear-gradient-29);}.cls-36{fill:url(#linear-gradient-30);}.cls-37{fill:url(#linear-gradient-31);}.cls-38{fill:url(#linear-gradient-32);}.cls-39{fill:url(#linear-gradient-33);}.cls-40{opacity:0.57;}.cls-41{fill:url(#linear-gradient-34);}.cls-42{fill:url(#linear-gradient-35);}.cls-43{fill:url(#linear-gradient-36);}.cls-44{fill:url(#linear-gradient-37);}.cls-45{fill:url(#linear-gradient-38);}.cls-46{fill:url(#linear-gradient-39);}.cls-47{fill:url(#linear-gradient-40);}.cls-48{fill:url(#linear-gradient-41);}.cls-49{fill:url(#linear-gradient-42);}.cls-50{fill:url(#linear-gradient-43);}.cls-51{fill:url(#linear-gradient-44);}.cls-52{fill:url(#linear-gradient-45);}.cls-53{fill:url(#linear-gradient-46);}.cls-54{fill:url(#linear-gradient-47);}.cls-55{fill:url(#linear-gradient-48);}.cls-56{fill:url(#linear-gradient-49);}.cls-57{opacity:0.6;}.cls-58{opacity:0.72;}.cls-59{fill:url(#linear-gradient-50);}.cls-60{fill:url(#linear-gradient-51);}.cls-61{fill:url(#linear-gradient-52);}.cls-62{fill:url(#linear-gradient-53);}.cls-63{fill:#f0f0f0;}</style><linearGradient id="linear-gradient" x1="3432.63" y1="3261.58" x2="1421.09" y2="1501.49" gradientUnits="userSpaceOnUse"><stop offset="0" stop-color="#b37cff"/><stop offset="1" stop-color="#f895e7"/></linearGradient><linearGradient id="linear-gradient-2" x1="-909" y1="140.63" x2="-672.35" y2="140.63" gradientTransform="translate(1926.77 1182.52) rotate(25.1)" xlink:href="#linear-gradient"/><linearGradient id="linear-gradient-3" x1="6475.2" y1="1053.78" x2="6506.7" y2="1053.78" gradientTransform="matrix(-0.28, -0.96, -0.96, 0.28, 3986.36, 6529.95)" xlink:href="#linear-gradient"/><linearGradient id="linear-gradient-4" x1="6638.68" y1="1294.44" x2="6660.3" y2="1294.44" gradientTransform="matrix(-0.28, -0.96, -0.96, 0.28, 3986.36, 6529.95)" xlink:href="#linear-gradient"/><linearGradient id="linear-gradient-5" x1="-1427.58" y1="189.45" x2="-1174.42" y2="189.45" gradientTransform="translate(1926.77 1182.52) rotate(25.1)" xlink:href="#linear-gradient"/><linearGradient id="linear-gradient-6" x1="6054.09" y1="1657.37" x2="6085.18" y2="1657.37" gradientTransform="matrix(-0.28, -0.96, -0.96, 0.28, 3986.36, 6529.95)" xlink:href="#linear-gradient"/><linearGradient id="linear-gradient-7" x1="-1961.91" y1="-1073" x2="139.3" y2="1753.81" gradientTransform="translate(1926.77 1182.52) rotate(25.1)" gradientUnits="userSpaceOnUse"><stop offset="0" stop-color="#a737d5"/><stop offset="1" stop-color="#ef497a"/></linearGradient><linearGradient id="linear-gradient-8" x1="5588.94" y1="1644.99" x2="5604.31" y2="1644.99" gradientTransform="matrix(-0.28, -0.96, -0.96, 0.28, 3986.36, 6529.95)" xlink:href="#linear-gradient"/><linearGradient id="linear-gradient-9" x1="-779.36" y1="648.48" x2="-664.84" y2="648.48" gradientTransform="translate(1926.77 1182.52) rotate(25.1)" xlink:href="#linear-gradient"/><linearGradient id="linear-gradient-10" x1="-1169.05" y1="713.49" x2="-1001.42" y2="713.49" gradientTransform="translate(1926.77 1182.52) rotate(25.1)" xlink:href="#linear-gradient"/><linearGradient id="linear-gradient-11" x1="5679.37" y1="1782.62" x2="5702.88" y2="1782.62" gradientTransform="matrix(-0.28, -0.96, -0.96, 0.28, 3986.36, 6529.95)" xlink:href="#linear-gradient"/><linearGradient id="linear-gradient-12" x1="-2092.41" y1="-939.92" x2="8.8" y2="1886.89" xlink:href="#linear-gradient-7"/><linearGradient id="linear-gradient-13" x1="1014.06" y1="1823.56" x2="2929.29" y2="1823.56" gradientUnits="userSpaceOnUse"><stop offset="0" stop-color="#2b3582"/><stop offset="1" stop-color="#150e42"/></linearGradient><linearGradient id="linear-gradient-14" x1="2445.65" y1="1142.87" x2="-1349" y2="5997.15" gradientUnits="userSpaceOnUse"><stop offset="0" stop-color="#fdf53f"/><stop offset="0.66" stop-color="#e57a58"/><stop offset="1" stop-color="#d93c65"/></linearGradient><linearGradient id="_3" x1="1981.61" y1="2815.93" x2="1374.42" y2="4989.87" gradientUnits="userSpaceOnUse"><stop offset="0" stop-color="#2b3582"/><stop offset="0.09" stop-color="#29317c"/><stop offset="1" stop-color="#150e42"/></linearGradient><linearGradient id="linear-gradient-15" x1="1142.58" y1="661.1" x2="1954.96" y2="1693.79" gradientTransform="translate(55.66 -36.99) rotate(1.95)" gradientUnits="userSpaceOnUse"><stop offset="0" stop-color="#53d8ff"/><stop offset="1" stop-color="#3840f7"/></linearGradient><linearGradient id="linear-gradient-16" x1="1435.91" y1="928.04" x2="2546.63" y2="2649.21" xlink:href="#linear-gradient-15"/><linearGradient id="linear-gradient-17" x1="1659.92" y1="746.61" x2="1641.98" y2="1721.35" xlink:href="#linear-gradient-15"/><linearGradient id="linear-gradient-18" x1="1464.37" y1="1449.92" x2="1917.41" y2="1449.92" xlink:href="#linear-gradient-15"/><linearGradient id="linear-gradient-19" x1="1475.9" y1="1563.9" x2="1918.27" y2="1563.9" xlink:href="#linear-gradient-15"/><linearGradient id="linear-gradient-20" x1="1482.5" y1="1659.72" x2="1935.84" y2="1659.72" xlink:href="#linear-gradient-15"/><linearGradient id="linear-gradient-21" x1="2899.88" y1="1134.34" x2="2408.75" y2="1226.14" xlink:href="#linear-gradient-15"/><linearGradient id="linear-gradient-22" x1="2070.03" y1="1437.68" x2="3984" y2="-3.54" xlink:href="#linear-gradient-15"/><linearGradient id="linear-gradient-23" x1="2294.15" y1="758.32" x2="2276.21" y2="1733.04" xlink:href="#linear-gradient-15"/><linearGradient id="linear-gradient-24" x1="2076.45" y1="1567.13" x2="2552.11" y2="1567.13" xlink:href="#linear-gradient-15"/><linearGradient id="linear-gradient-25" x1="2076.05" y1="1660.01" x2="2552.52" y2="1660.01" xlink:href="#linear-gradient-15"/><linearGradient id="linear-gradient-26" x1="923.66" y1="1818.57" x2="727.82" y2="2179.85" gradientTransform="translate(-825.48 2889.9) rotate(-90)" xlink:href="#linear-gradient-7"/><linearGradient id="linear-gradient-27" x1="1227.86" y1="1908.37" x2="958.12" y2="2426.08" gradientTransform="translate(-825.48 2889.9) rotate(-90)" xlink:href="#linear-gradient-7"/><linearGradient id="linear-gradient-28" x1="940.79" y1="2835.45" x2="392.87" y2="3907.32" gradientTransform="translate(-825.48 2889.9) rotate(-90)" gradientUnits="userSpaceOnUse"><stop offset="0" stop-color="#cb236d"/><stop offset="1" stop-color="#4c246d"/></linearGradient><linearGradient id="linear-gradient-29" x1="1293.97" y1="2160.82" x2="497.55" y2="3773.2" xlink:href="#linear-gradient-28"/><linearGradient id="linear-gradient-30" x1="1095.39" y1="2081.4" x2="919.83" y2="2426.56" gradientTransform="translate(-825.48 2889.9) rotate(-90)" gradientUnits="userSpaceOnUse"><stop offset="0" stop-color="#fdf53f"/><stop offset="1" stop-color="#d93c65"/></linearGradient><linearGradient id="linear-gradient-31" x1="1141.69" y1="2155.95" x2="981.52" y2="2470.86" xlink:href="#linear-gradient-30"/><linearGradient id="linear-gradient-32" x1="566.9" y1="2204.05" x2="110.82" y2="3004.05" xlink:href="#linear-gradient-28"/><linearGradient id="linear-gradient-33" x1="1964.99" y1="1871.49" x2="1952.32" y2="2707.94" gradientTransform="matrix(1, 0, 0, 1, 0, 0)" xlink:href="#linear-gradient-7"/><linearGradient id="linear-gradient-34" x1="2190.48" y1="2032.58" x2="1682.74" y2="3563.85" gradientTransform="matrix(1, 0, 0, 1, 0, 0)" xlink:href="#linear-gradient-28"/><linearGradient id="linear-gradient-35" x1="2294.28" y1="2399.6" x2="1786.54" y2="3930.86" gradientTransform="matrix(1, 0, 0, 1, 0, 0)" xlink:href="#linear-gradient-28"/><linearGradient id="linear-gradient-36" x1="2016.82" y1="2116.96" x2="3168.25" y2="2116.96" gradientTransform="translate(-1951.82 864.56) rotate(-13.3)" xlink:href="#linear-gradient-13"/><linearGradient id="linear-gradient-37" x1="1330.71" y1="1462.8" x2="2504.65" y2="1462.8" gradientTransform="translate(205.07 -69.1) rotate(6.2)" xlink:href="#linear-gradient-13"/><linearGradient id="linear-gradient-38" x1="676.04" y1="3216.51" x2="940.82" y2="2534.87" gradientUnits="userSpaceOnUse"><stop offset="0" stop-color="#f9b776"/><stop offset="1" stop-color="#f47960"/></linearGradient><linearGradient id="linear-gradient-39" x1="672.01" y1="5409.05" x2="1547.15" y2="-4819.14" xlink:href="#linear-gradient-38"/><linearGradient id="linear-gradient-40" x1="703.47" y1="2178.65" x2="815.7" y2="2178.65" xlink:href="#linear-gradient-38"/><linearGradient id="linear-gradient-41" x1="-568.85" y1="3028.53" x2="-667.06" y2="3194.73" gradientTransform="matrix(-1, 0, 0, 1, 226.05, 0)" xlink:href="#linear-gradient-15"/><linearGradient id="linear-gradient-42" x1="-2108.09" y1="2375.64" x2="-2206.29" y2="2541.83" gradientTransform="matrix(-0.92, -0.39, -0.39, 0.92, -307.14, -31.63)" xlink:href="#linear-gradient-15"/><linearGradient id="linear-gradient-43" x1="1006.71" y1="2172.79" x2="751.72" y2="2769.29" gradientTransform="matrix(1, 0, 0, 1, 0, 0)" xlink:href="#linear-gradient-28"/><linearGradient id="linear-gradient-44" x1="826.04" y1="1887.74" x2="905.75" y2="1887.74" xlink:href="#linear-gradient-38"/><linearGradient id="linear-gradient-45" x1="969.66" y1="1974.11" x2="547.55" y2="2515.62" gradientTransform="matrix(1, 0, 0, 1, 0, 0)" xlink:href="#linear-gradient-15"/><linearGradient id="linear-gradient-46" x1="1293.72" y1="1933.19" x2="604.31" y2="2328.14" xlink:href="#linear-gradient-38"/><linearGradient id="linear-gradient-47" x1="1362.22" y1="2052.76" x2="672.82" y2="2447.71" xlink:href="#linear-gradient-38"/><linearGradient id="linear-gradient-48" x1="958.81" y1="1887.71" x2="803.91" y2="1661.21" xlink:href="#linear-gradient-38"/><linearGradient id="linear-gradient-49" x1="451.12" y1="1950.06" x2="955.82" y2="1950.06" xlink:href="#linear-gradient-13"/><linearGradient id="linear-gradient-50" x1="2512.89" y1="3498.74" x2="2864.07" y2="1893.34" xlink:href="#linear-gradient"/><linearGradient id="linear-gradient-51" x1="4254.25" y1="700.41" x2="843.71" y2="5034.64" gradientTransform="matrix(1, 0, 0, 1, 0, 0)" xlink:href="#linear-gradient-7"/><linearGradient id="linear-gradient-52" x1="2937.29" y1="2224.53" x2="2984.65" y2="3476.29" xlink:href="#linear-gradient"/><linearGradient id="linear-gradient-53" x1="4501.66" y1="895.09" x2="1091.11" y2="5229.32" gradientTransform="matrix(1, 0, 0, 1, 0, 0)" xlink:href="#linear-gradient-7"/></defs><g id="Background"><rect class="cls-1" width="3710" height="3710"/></g><g id="Illustration"><path class="cls-2" d="M3090.78,2347.49c-260,612.13-952.48,955.05-1553,862.54-97.72-15.05-365.62-59.88-602.82-271.41C478.34,2531.42,380.69,1725.11,749,1156.88c268.08-413.57,748.64-648,1205.27-636.28,98.36,2.52,475.31,18.09,806.58,291.25,48.66,40.12,156,135.46,252.7,286.72C3240.68,1453.73,3260.2,1948.56,3090.78,2347.49Z"/><g class="cls-3"><path class="cls-4" d="M965.29,1244.81a9.45,9.45,0,0,1,7.59-11c10-1.83,20-4.12,29.87-6.81a9.46,9.46,0,0,1,11.56,6.46l.05.17a9.46,9.46,0,0,1-6.63,11.62c-10.36,2.82-20.93,5.24-31.44,7.16a9.45,9.45,0,0,1-10.77-6.62C965.43,1245.46,965.35,1245.14,965.29,1244.81Zm84.45-34.18c9.37-4,18.66-8.45,27.62-13.21a9.45,9.45,0,1,1,8.87,16.7c-9.42,5-19.2,9.69-29.07,13.9a9.46,9.46,0,0,1-12.41-5c-.14-.35-.27-.7-.38-1A9.45,9.45,0,0,1,1049.74,1210.63Zm69.81-39.54c8.23-6,16.29-12.38,24-19a9.45,9.45,0,1,1,12.38,14.29c-8.09,7-16.59,13.76-25.25,20.05a9.46,9.46,0,0,1-13.21-2.1,9.6,9.6,0,0,1-1.42-2.89A9.43,9.43,0,0,1,1119.55,1171.09Zm59.22-54.17c6.69-7.66,13.12-15.71,19.13-23.92a9.46,9.46,0,0,1,15.26,11.17c-6.32,8.64-13.1,17.11-20.14,25.19a9.45,9.45,0,0,1-13.34.9,9.44,9.44,0,0,1-.91-13.34Zm45.67-66c4.81-8.94,9.31-18.22,13.36-27.57a9.45,9.45,0,0,1,17.35,7.52c-4.26,9.84-9,19.6-14.06,29a9.45,9.45,0,0,1-16.65-9Zm29.93-74.46c2.72-9.8,5.05-19.84,6.93-29.84a9.46,9.46,0,0,1,18.59,3.49c-2,10.52-4.43,21.09-7.29,31.4a9.46,9.46,0,0,1-18.23-5Zm-73.13-343.41a9.46,9.46,0,0,1,13.34,1c7,8.09,13.72,16.61,20,25.3a9.46,9.46,0,0,1-15.33,11.08c-6-8.25-12.35-16.34-19-24a9.45,9.45,0,0,1,1-13.34Zm85.81,264.21c.47-10.15.5-20.45.1-30.61a9.46,9.46,0,1,1,18.9-.74c.42,10.69.38,21.53-.11,32.22a9.46,9.46,0,0,1-18.52,2.23A9.36,9.36,0,0,1,1267.05,897.26Zm-37.59-197.38a9.45,9.45,0,0,1,12.78,3.94c5,9.45,9.66,19.25,13.85,29.11a9.46,9.46,0,0,1-17.41,7.39c-4-9.37-8.41-18.68-13.16-27.67a9.13,9.13,0,0,1-.71-1.76A9.45,9.45,0,0,1,1229.46,699.88Zm32.25,117.35c-1.82-10-4.08-20.05-6.75-29.87a9.46,9.46,0,0,1,18.2-5.14,1.33,1.33,0,0,1,0,.19c2.81,10.34,5.2,20.92,7.11,31.44a9.46,9.46,0,0,1-18.38,4.37C1261.85,817.89,1261.77,817.56,1261.71,817.23Z"/><path class="cls-5" d="M1130.59,596.76a9.44,9.44,0,0,0,3.14,4.69c3.8,3.06,7.6,6.24,11.29,9.47a9.45,9.45,0,1,0,12.44-14.24c-3.88-3.4-7.88-6.75-11.87-10a9.46,9.46,0,0,0-15,10Z"/></g><g class="cls-3"><path class="cls-6" d="M853.26,518.14a9.46,9.46,0,0,0,10.26,6.71c4.84-.62,9.77-1.15,14.65-1.57a9.45,9.45,0,0,0-1.61-18.84c-5.15.44-10.34,1-15.43,1.65A9.45,9.45,0,0,0,853,516.66,8.83,8.83,0,0,0,853.26,518.14Z"/><path class="cls-7" d="M541.35,968.92a9.45,9.45,0,1,1,18.38-4.43c2.33,9.66,5.11,19.38,8.29,29a9.46,9.46,0,0,1-18,5.93q-2.07-6.24-3.9-12.5C544.41,981,542.79,974.9,541.35,968.92Zm32.51,65.56a9.44,9.44,0,0,1,12.64,4.33c4.41,9,9.25,17.92,14.38,26.5a9.46,9.46,0,0,1-16.23,9.71c-5.4-9-10.49-18.42-15.13-27.89a10,10,0,0,1-.58-1.51A9.44,9.44,0,0,1,573.86,1034.48ZM532.72,918.13c-1.05-10.47-1.66-21.13-1.82-31.68a9.46,9.46,0,0,1,18.91-.28c.15,10,.73,20.13,1.73,30.07a9.46,9.46,0,0,1-18.48,3.62A9.81,9.81,0,0,1,532.72,918.13ZM615.53,1104a9.45,9.45,0,0,1,13.29,1.45c6.27,7.81,12.94,15.44,19.84,22.68a9.45,9.45,0,1,1-13.69,13c-7.27-7.62-14.3-15.66-20.89-23.88a9.33,9.33,0,0,1-1.71-3.25A9.47,9.47,0,0,1,615.53,1104ZM533.67,835c1.28-10.43,3-21,5.19-31.28a9.46,9.46,0,0,1,18.51,3.87c-2.06,9.81-3.72,19.81-4.93,29.72A9.46,9.46,0,1,1,533.67,835Zm19.14-80.86c3.54-9.92,7.54-19.82,11.89-29.4a9.45,9.45,0,0,1,17.22,7.81c-4.13,9.11-7.93,18.51-11.3,27.94a9.45,9.45,0,0,1-17.81-6.35Zm36.32-74.77c5.62-8.92,11.68-17.71,18-26.11a9.45,9.45,0,1,1,15.1,11.37c-6,8-11.77,16.34-17.11,24.82a9.46,9.46,0,0,1-16-10.08Zm51.76-65.06c7.43-7.48,15.27-14.73,23.3-21.55a9.46,9.46,0,0,1,12.24,14.42c-7.63,6.47-15.07,13.35-22.13,20.46a9.46,9.46,0,0,1-13.37,0,9.56,9.56,0,0,1-2.41-4A9.45,9.45,0,0,1,640.89,614.35Zm64.82-52.14c8.88-5.64,18.12-11,27.46-15.86a9.46,9.46,0,0,1,8.77,16.76c-8.88,4.64-17.65,9.71-26.09,15.06a9.45,9.45,0,0,1-13.05-2.9,9.63,9.63,0,0,1-1.09-2.41A9.47,9.47,0,0,1,705.71,562.21Zm74.61-36.58c7.29-2.64,14.76-5.08,22.18-7.26q4-1.18,8.07-2.27a9.34,9.34,0,0,1,11.59,6.66,9.44,9.44,0,0,1-6.66,11.59q-3.82,1-7.67,2.16c-7.06,2.08-14.15,4.4-21.08,6.9a9.44,9.44,0,0,1-12.1-5.68c-.07-.18-.13-.37-.19-.55A9.46,9.46,0,0,1,780.32,525.63Z"/><path class="cls-8" d="M670,1171.43a9.41,9.41,0,0,0,3.18,4.73c4,3.19,8.15,6.35,12.33,9.4a9.45,9.45,0,1,0,11.16-15.26c-4-2.9-7.91-5.91-11.71-8.93a9.45,9.45,0,0,0-15,10.06Z"/></g><path class="cls-9" d="M831.08,1153.33a4.4,4.4,0,0,0,5-1.13l35.9-40a234.23,234.23,0,0,0,75.91.48l35.39,40.46a4.41,4.41,0,0,0,5,1.18l59.75-24.33a4.42,4.42,0,0,0,2.75-4.33l-2.94-53.67a234.41,234.41,0,0,0,54-53.37l53.66,3.58a4.43,4.43,0,0,0,4.37-2.7L1184.89,960a4.42,4.42,0,0,0-1.13-5l-40-35.89a234.23,234.23,0,0,0,.48-75.91l40.46-35.39a4.43,4.43,0,0,0,1.18-5l-24.33-59.75a4.42,4.42,0,0,0-4.34-2.75l-53.67,2.94a234,234,0,0,0-53.37-54l3.59-53.66a4.42,4.42,0,0,0-2.7-4.37l-59.45-25a4.42,4.42,0,0,0-5,1.13l-35.89,40a234.24,234.24,0,0,0-75.91-.48l-35.39-40.46a4.42,4.42,0,0,0-5-1.18l-59.75,24.33a4.42,4.42,0,0,0-2.75,4.33l2.94,53.67a234.41,234.41,0,0,0-54,53.37l-53.67-3.58a4.42,4.42,0,0,0-4.36,2.7l-25,59.45a4.43,4.43,0,0,0,1.12,5l40.06,35.89a234.23,234.23,0,0,0-.49,75.91L638,951.72a4.42,4.42,0,0,0-1.18,5l24.33,59.75a4.42,4.42,0,0,0,4.33,2.75l53.67-2.94a234.21,234.21,0,0,0,53.37,54l-3.58,53.66a4.42,4.42,0,0,0,2.69,4.37Z"/><path class="cls-10" d="M847.1,888.77a64.83,64.83,0,1,1,2,9.31A64.92,64.92,0,0,1,847.1,888.77Zm94.15-48.71a49.72,49.72,0,1,0,19.31,32.79,50.78,50.78,0,0,0-1.56-7.21A49.36,49.36,0,0,0,941.25,840.06Z"/><path class="cls-10" d="M758.87,923.21a161.28,161.28,0,0,0,5.41,15.47h0c.65,1.6,1.33,3.2,2,4.78a161.44,161.44,0,0,0,12.21,22.43l.19.29.54.82,1.07,1.59a3.79,3.79,0,0,0,4.19,1.5,3.88,3.88,0,0,0,1.07-.51,3.78,3.78,0,0,0,1-5.25,152,152,0,0,1,1.64-173.79,151,151,0,0,1,66.46-52.67,154.69,154.69,0,0,1,14.76-5.16,151.94,151.94,0,0,1,183.2,88.55c31.59,77.6-5.83,166.37-83.39,198q-7.18,2.91-14.57,5.09a151.48,151.48,0,0,1-65.79,4.38,3.92,3.92,0,0,0-1.64.11,3.78,3.78,0,0,0,.49,7.37,159.6,159.6,0,0,0,84.36-10c81.43-33.16,120.69-126.41,87.54-207.81a159.49,159.49,0,0,0-192.32-93,163.45,163.45,0,0,0-15.49,5.41,159.5,159.5,0,0,0-93,192.35Z"/><g class="cls-3"><path class="cls-11" d="M817.4,1625.58a5.84,5.84,0,0,0,5.61,4.19c5,0,10-.15,14.93-.45a5.84,5.84,0,0,0-.7-11.66c-4.72.29-9.51.43-14.24.43a5.85,5.85,0,0,0-5.84,5.84A5.93,5.93,0,0,0,817.4,1625.58Z"/><path class="cls-12" d="M862,1620.86a5.84,5.84,0,0,1,4.68-6.8,243.58,243.58,0,0,0,23.83-5.71c1.64-.48,3.29-1,4.94-1.51a5.85,5.85,0,0,1,7.33,3.81A6,6,0,0,1,899,1618c-1.72.54-3.45,1.07-5.17,1.58-8.19,2.4-16.59,4.41-25,6a5.85,5.85,0,0,1-6.67-4.09C862.08,1621.26,862,1621.06,862,1620.86Zm61.12-24.68a242.6,242.6,0,0,0,26.16-14,5.84,5.84,0,1,1,6.12,9.94A252.58,252.58,0,0,1,928,1606.8a5.84,5.84,0,0,1-7.74-2.88,5,5,0,0,1-.29-.79A5.83,5.83,0,0,1,923.11,1596.18Zm50.4-31a239.63,239.63,0,0,0,21.94-20,5.84,5.84,0,1,1,8.38,8.13,251.78,251.78,0,0,1-23,20.94,5.85,5.85,0,0,1-8.21-.9,6,6,0,0,1-1-2A5.85,5.85,0,0,1,973.51,1565.14Zm41.24-42.48a242.06,242.06,0,0,0,16.38-24.72,5.84,5.84,0,0,1,10.12,5.84,252.87,252.87,0,0,1-17.18,25.92,5.84,5.84,0,0,1-9.32-7Zm29.61-51.26a241.54,241.54,0,0,0,9.89-28,5.84,5.84,0,1,1,11.23,3.21,256,256,0,0,1-10.36,29.3,5.84,5.84,0,0,1-10.76-4.56Zm16.28-56.89a237.37,237.37,0,0,0,2.76-29.5,5.84,5.84,0,0,1,11.68.37,251,251,0,0,1-2.9,30.94,5.84,5.84,0,1,1-11.54-1.81Zm1.86-59.12a239.4,239.4,0,0,0-4.56-29.3,5.84,5.84,0,0,1,11.41-2.5,252.8,252.8,0,0,1,4.78,30.71,5.84,5.84,0,0,1-11.41,2.2A5.9,5.9,0,0,1,1062.5,1355.39Zm-21.62-93a5.82,5.82,0,0,1,7.82,2.63,252.74,252.74,0,0,1,10.72,24.79c.48,1.28.94,2.56,1.4,3.85a5.78,5.78,0,0,1-3.58,7.44,5.84,5.84,0,0,1-7.45-3.57c-.42-1.21-.86-2.42-1.32-3.64a240.81,240.81,0,0,0-10.22-23.67,6.38,6.38,0,0,1-.38-1A5.84,5.84,0,0,1,1040.88,1262.43Z"/></g><g class="cls-3"><path class="cls-13" d="M580,1445.21a253.63,253.63,0,0,1-6.45-29.88,5.84,5.84,0,1,1,11.55-1.77,240.45,240.45,0,0,0,6.15,28.51,5.84,5.84,0,0,1-11.23,3.22Zm13.15,21.28a5.84,5.84,0,0,1,7.63,3.16,245.29,245.29,0,0,0,12.77,26.24,5.84,5.84,0,0,1-10.18,5.73,254.65,254.65,0,0,1-13.38-27.5,6.08,6.08,0,0,1-.21-.6A5.84,5.84,0,0,1,593.11,1466.49Zm-22.36-81.63a253.18,253.18,0,0,1,1-30.56,5.84,5.84,0,1,1,11.63,1.07,244.46,244.46,0,0,0-.93,29.16,5.84,5.84,0,0,1-11.44,1.81A5.52,5.52,0,0,1,570.75,1384.86Zm50.43,134.28a5.84,5.84,0,0,1,8.17,1.24,239.44,239.44,0,0,0,18.72,22.37,5.84,5.84,0,1,1-8.49,8A251.75,251.75,0,0,1,620,1527.31a6.06,6.06,0,0,1-.9-1.82A5.86,5.86,0,0,1,621.18,1519.14ZM576.4,1324.09a255,255,0,0,1,8.29-29.42,5.84,5.84,0,1,1,11,3.84,238.26,238.26,0,0,0-7.91,28.07,5.85,5.85,0,0,1-11.32.4A6,6,0,0,1,576.4,1324.09Zm20.06-57.64a256.81,256.81,0,0,1,15.1-26.6,5.84,5.84,0,0,1,9.79,6.37,242.51,242.51,0,0,0-14.4,25.37,5.84,5.84,0,0,1-10.49-5.14Zm33.3-51.19a250.9,250.9,0,0,1,21-22.2,5.84,5.84,0,1,1,8,8.53,239.21,239.21,0,0,0-20.07,21.18,5.84,5.84,0,1,1-9-7.51Z"/><path class="cls-14" d="M660.25,1569a5.79,5.79,0,0,0,1.89,2.85c3.85,3.18,7.82,6.26,11.78,9.16a5.84,5.84,0,1,0,6.9-9.43c-3.79-2.76-7.57-5.7-11.25-8.74a5.84,5.84,0,0,0-9.32,6.16Z"/></g><path class="cls-15" d="M771.05,1559.84a3,3,0,0,0,3.35-.75l24-26.8a156.72,156.72,0,0,0,50.79.32l23.68,27.07a3,3,0,0,0,3.34.8l40-16.29a2.94,2.94,0,0,0,1.83-2.89l-2-35.92a156.82,156.82,0,0,0,36.12-35.71l35.91,2.4a3,3,0,0,0,2.92-1.81l16.76-39.78a3,3,0,0,0-.75-3.35l-26.8-24a156.72,156.72,0,0,0,.32-50.79l27.07-23.69a3,3,0,0,0,.79-3.34l-16.28-40a3,3,0,0,0-2.9-1.84l-35.91,2a156.66,156.66,0,0,0-35.72-36.12l2.4-35.91a3,3,0,0,0-1.8-2.92l-39.79-16.76a2.94,2.94,0,0,0-3.34.75l-24,26.8a156.72,156.72,0,0,0-50.79-.32l-23.68-27.07a3,3,0,0,0-3.34-.79l-40,16.28a3,3,0,0,0-1.84,2.9l2,35.91a157,157,0,0,0-36.12,35.71l-35.91-2.39a3,3,0,0,0-2.92,1.8l-16.76,39.78a3,3,0,0,0,.75,3.35l26.81,24a156.78,156.78,0,0,0-.33,50.8l-27.07,23.68a3,3,0,0,0-.79,3.34l16.28,40a3,3,0,0,0,2.9,1.84l35.92-2a156.62,156.62,0,0,0,35.71,36.12l-2.4,35.91a3,3,0,0,0,1.8,2.92Z"/><path class="cls-10" d="M781,1382.93a44,44,0,1,1,1.38,6.4A45.51,45.51,0,0,1,781,1382.93Zm39.23-38.32a32.49,32.49,0,0,0-27.67,36.69h0a32.5,32.5,0,0,0,64.36-9,31.12,31.12,0,0,0-1-4.66A32.53,32.53,0,0,0,820.23,1344.61Z"/><path class="cls-10" d="M719.59,1406.9a110.81,110.81,0,0,0,14.2,30.36l.57.83a5.84,5.84,0,0,0,9.64-6.58,99.21,99.21,0,0,1-9.9-18.45h0l-.42-1.07a97.39,97.39,0,0,1-6.18-47.76,99,99,0,0,1,6.71-25.61l.08-.2.26-.62A98.33,98.33,0,1,1,862.25,1467q-4.65,1.89-9.43,3.3a98.08,98.08,0,0,1-42.58,2.84,5.84,5.84,0,1,0-1.79,11.54,110,110,0,1,0-14.08-214.37,110.17,110.17,0,0,0-74.78,136.55Z"/><path class="cls-16" d="M1049.16,600.77c-11.3,455.67-47.93,1904.61-30.45,2461.6a111.83,111.83,0,0,0,108.17,108.3c291.84,9.55,1131.38,33.76,1608.73,13.73,99.43-4.17,178.49-84.71,180.56-184.2,9.92-478.28,31.8-1700.68-20.22-2316.93a153.68,153.68,0,0,0-137.91-140c-317.83-31.79-1162-109.51-1574.38-82.75C1109.29,465.34,1051,526.26,1049.16,600.77Z"/><path class="cls-17" d="M1167.74,746c-15.94,384-66.22,1538.87-50.26,2011.31,2.33,69.06,55.22,124.89,122.25,128.93,276,16.62,983.81,53.27,1388.59,19.91,72.89-6,130.09-66.67,134-141.81,20.51-391.81,79.41-1458.66,64.11-1925.81C2824,764,2767.92,703.1,2695.75,696.43c-298.55-27.59-1065.35-93.22-1409.32-73.91C1221.86,626.15,1170.5,679.46,1167.74,746Z"/><path class="cls-18" d="M1770.41,540.13h0a26.25,26.25,0,0,0,24.86,26.25c68.93,3.61,263.11,13.82,349.89,18.86a26.27,26.27,0,0,0,27.3-31.22l-.56-2.87a26.26,26.26,0,0,0-23.38-21.2c-58.66-5.37-235.67-20.28-352.94-16.09A26.2,26.2,0,0,0,1770.41,540.13Z"/><rect class="cls-19" x="1665.77" y="2967.9" width="508.81" height="135.98" rx="15.1"/><path class="cls-20" d="M1338.35,1798.7,1295.74,762.61a38.15,38.15,0,0,1,35.5-40.77c74.64-4.92,266.21-.24,635.91,108.55l35.41,952.54Z"/><path class="cls-21" d="M1400.88,1800.84,1355,705.51a29.67,29.67,0,0,1,29.66-31.68c103.8.11,434.58,12.19,582.5,156.56l35.41,952.54Z"/><path class="cls-22" d="M1438,1785.89a26.49,26.49,0,0,1-25.53-24.7l-41-1039.74A28.66,28.66,0,0,1,1400,690.72c97.7.06,404.9,11.22,550.57,143.7a26.81,26.81,0,0,1,8.8,18.81L1991.56,1738a26.49,26.49,0,0,1-27.38,27.44Z"/><path class="cls-23" d="M1417.79,763.56l42.26,572.81a41.4,41.4,0,0,0,40.28,38.34l387.79,9.43a41.41,41.41,0,0,0,42.4-42.25L1920.58,865a41.36,41.36,0,0,0-23.31-36.38c-63.81-30.87-251.85-113.06-438.84-109.54A41.47,41.47,0,0,0,1417.79,763.56Z"/><path class="cls-24" d="M1470.17,1461.71l2.61,14.61a19.75,19.75,0,0,0,18.83,16.26l410.18,13a19.76,19.76,0,0,0,20.26-22l-2.44-19.5a19.18,19.18,0,0,0-18.94-17.24L1490,1438.47A19.75,19.75,0,0,0,1470.17,1461.71Z"/><path class="cls-25" d="M1477.71,1568.41l1.24,19.69a19.76,19.76,0,0,0,19.86,18.51l401.24-2.63a19.76,19.76,0,0,0,19.54-21.63l-.3-.33a19.18,19.18,0,0,0-18.53-17.55l-402.49-17A19.76,19.76,0,0,0,1477.71,1568.41Z"/><path class="cls-26" d="M1480.67,1678.4l2,17a13.88,13.88,0,0,0,13.72,12.29l423.16,2a13.87,13.87,0,0,0,13.57-17.05l-7-29.72a13.88,13.88,0,0,0-13.71-10.7l-413.91,5.94A18.2,18.2,0,0,0,1480.67,1678.4Z"/><path class="cls-27" d="M1988.56,828.28s286.36-194.95,646.61-86.34a50.84,50.84,0,0,1,36.08,49l-7,1014.57-661.71-22.6Z"/><path class="cls-28" d="M2613.92,731.62l6.93,1072.43-618.29-21.12-35.41-952.54s302.72-192.74,595.65-156.78C2592,677.19,2613.73,702.24,2613.92,731.62Z"/><path class="cls-22" d="M2603.4,748.06l6.51,1008.38a29.8,29.8,0,0,1-30.81,30l-539-18.42a31.35,31.35,0,0,1-30.27-30.18l-33.23-894S2269.94,657,2553.84,691.85C2582.1,695.32,2603.21,719.59,2603.4,748.06Z"/><path class="cls-29" d="M2096.94,842.24a67.93,67.93,0,0,0-50.41,69.28c7,131.3,24.66,460.4,32,567a36.72,36.72,0,0,0,36.7,34.19l400-.37a42.57,42.57,0,0,0,42.53-42.69L2556,793.38a40.65,40.65,0,0,0-38.8-40.54C2452.79,749.94,2206.65,813.07,2096.94,842.24Z"/><path class="cls-30" d="M2097,1581.58l437.51,14.94a18.94,18.94,0,0,1,18.28,19.58v.26a19,19,0,0,1-19.58,18.28l-437.51-15a18.94,18.94,0,0,1-18.29-19.57v-.26A18.94,18.94,0,0,1,2097,1581.58Z"/><path class="cls-31" d="M2074.07,1687.05l0,11.83a18.94,18.94,0,0,0,18.24,18.86l437.84,16.09a19,19,0,0,0,19.64-19h0A18.94,18.94,0,0,0,2532.1,1696l-437.88-27.93A18.94,18.94,0,0,0,2074.07,1687.05Z"/><path class="cls-32" d="M1336.07,2156s-191.76,21.91-253.79-45c-2.76-3,.37-6.95,5.39-6.95h36.45c8.72,0,13.21-7.38,7.23-11.88-19.1-14.41-48.11-40.19-54.15-67.52-1.62-7.29,8.62-13,18-9.85,50.42,16.77,191.73,60.66,284.3,59Z"/><path class="cls-33" d="M1336,2227l1226.52,41.83a83.86,83.86,0,0,0,86.73-83.82v-97.76a83.87,83.87,0,0,0-83.87-83.87H1364.15c-28.17,0-53.12,12.77-62.23,31.72-17.08,35.52-38.39,95.91-23.57,155.22C1283.4,2210.54,1307.18,2225.73,1336,2227Z"/><path class="cls-34" d="M2221.07,2222.05l280.92,9.09c23.28.76,42.74-12.46,42.74-29v-135.6c0-16-18.31-29-40.88-29H2222.93c-22.58,0-40.88,13-40.88,29V2193C2182.05,2208.56,2199.24,2221.34,2221.07,2222.05Z"/><path class="cls-35" d="M2591.28,1867.37a75,75,0,0,0-75-75H1386.61c-23.23,0-43.92,10.72-50.71,26.52-30.38,70.67-13.37,132.13.74,164.4,6.25,14.3,24.79,24.06,45.85,24.06H2516.28a75,75,0,0,0,75-75Z"/><path class="cls-36" d="M1402.17,1986.08l137.47-5.22c17.14-.65,30.56-10.71,30.56-22.91V1842.84c0-12.38-13.82-22.53-31.23-22.93l-135.64-3.13c-15.56-.36-29.3,7.2-32.58,18-8.48,28-20.17,83-1.65,133.89C1373,1979.33,1386.71,1986.66,1402.17,1986.08Z"/><path class="cls-37" d="M1629.44,1977.13h0c16.92-.83,30-10.83,30-22.88V1844c0-12.85-14.85-23.19-32.92-22.94h0c-17.57.26-31.63,10.45-31.63,22.94v110.21C1594.94,1967.54,1610.79,1978.05,1629.44,1977.13Z"/><path class="cls-38" d="M1392.89,2840.76l1127.27,8a75,75,0,0,0,75.53-75V2542.28a75,75,0,0,0-76.82-75l-1101.24,26.86c-26.12.83-48.86,12.82-57.66,30.31-24,47.7-59.15,151.59-9.74,292.26C1355.13,2830.7,1372.66,2840.57,1392.89,2840.76Z"/><path class="cls-39" d="M1412.62,2497.41l1104.47-25a75,75,0,0,0,73.3-75v-80.11a75,75,0,0,0-73.91-75l-1114-16.16c-25.14-.47-47.88,10.95-55.11,28.06-31.23,73.93-34.29,147.36,12.35,219.92C1369.17,2488.82,1390,2498.07,1412.62,2497.41Z"/><path class="cls-40" d="M1446.56,2476.7l49.17-2.7c14.9-.82,26.13-10,25.26-20.57l-15.2-185.75c-.8-9.75-11.63-17.58-25.34-18.31l-34-1.8c-15.91-.85-29.47,8.1-29.47,19.44v190.26C1417,2468.63,1430.63,2477.58,1446.56,2476.7Z"/><path class="cls-40" d="M1564.06,2469h18c13.86,0,24.92-8.2,24.35-18l-10.44-177.93c-.55-9.28-11.29-16.6-24.35-16.6h-19c-13.9,0-25,8.25-24.34,18.11l11.53,177.94C1540.32,2461.76,1551,2469,1564.06,2469Z"/><path class="cls-41" d="M1847.6,2816.49l251.2,13.85c20.82,1.15,38.22-19,38.22-44.22V2579.55c0-24.45-16.37-44.27-36.55-44.27h-251.2c-20.19,0-36.56,19.82-36.56,44.27v192.72C1812.71,2795.93,1828.08,2815.41,1847.6,2816.49Z"/><rect class="cls-42" x="2178.36" y="2481" width="56.97" height="364.58"/><path class="cls-43" d="M1528.68,1933.54l-952.22,625.3a82,82,0,0,0-19.83,118.69l4.81,6.2A76.18,76.18,0,0,0,668.72,2697l901-707Z"/><ellipse class="cls-18" cx="1953.65" cy="1592.32" rx="528.44" ry="518.91" transform="translate(-313.79 491.89) rotate(-13.29)"/><path class="cls-44" d="M1820.89,1030.39c-316.05,74.66-512.82,386.78-439.5,697.13s389,501.4,705,426.74,512.82-386.78,439.5-697.14S2136.94,955.72,1820.89,1030.39Zm246,1041.32c-269.63,63.7-538.91-99.29-601.46-364s105.32-531,374.94-594.73,538.91,99.3,601.46,364S2336.53,2008,2066.91,2071.71Z"/><path class="cls-1" d="M1440.44,1784.7a1.7,1.7,0,0,1-1.59-1.1c-4.82-12.85-9.2-26.07-13-39.29a1.69,1.69,0,1,1,3.25-.93c3.8,13.13,8.15,26.26,12.94,39a1.69,1.69,0,0,1-1,2.18A1.71,1.71,0,0,1,1440.44,1784.7Zm-33.2-158.06a1.68,1.68,0,0,1-1.68-1.6,529.38,529.38,0,0,1,5.88-112.47c16.86-105.13,64.46-202.61,137.67-281.9,75-81.18,172-137.65,280.52-163.3a554.88,554.88,0,0,1,306.43,14.21,1.69,1.69,0,0,1-1.08,3.21,551.53,551.53,0,0,0-304.57-14.13c-107.91,25.5-204.32,81.62-278.82,162.31-72.75,78.8-120.06,175.67-136.81,280.13a526,526,0,0,0-5.85,111.76,1.69,1.69,0,0,1-1.59,1.78Z"/><path class="cls-1" d="M628.46,2688.79h-.17c-34.33-3.48-55.25-17.65-62.17-42.14-7-24.66,3.25-51.5,25.41-66.79l113.57-78.33a1.67,1.67,0,0,1,2.35.43,1.69,1.69,0,0,1-.43,2.35l-113.57,78.33c-21,14.47-30.65,39.82-24.07,63.09,6.5,23,26.44,36.37,59.25,39.7a1.69,1.69,0,0,1-.17,3.37Z"/><path class="cls-1" d="M741.06,2480.47a1.7,1.7,0,0,1-1-3.09l14.72-10.15a1.69,1.69,0,1,1,1.92,2.78L742,2480.17A1.72,1.72,0,0,1,741.06,2480.47Z"/><path class="cls-45" d="M886.05,2595.12l-93.79,23.44,23.44,175.86s-35.17,35.17-46.89,82.06-22.53,243.79-22.53,243.79L724,3133.73l-2.7,11.23L786.06,3232l-10.73-69.29c-1.71-11,1.24-33.3.31-33.77,35.17-93.79,110.41-358,110.41-358Z"/><path class="cls-46" d="M913.45,3146.16c-1,0-2,.07-3,0,4.53-56.54,25.24-305.37,46-398.64C979.83,2642,921.22,2431,921.22,2431L815.7,2536.5l58.62,199.3c-40.17,60.25,6.55,413.12,5.55,413l.06.78-15.29,21,1.86,11.4,93.43,55.14-36.76-59.7A67,67,0,0,1,913.45,3146.16Z"/><path class="cls-47" d="M794.77,1963s-205.43,285.06,0,431.21l20.93-18.66s-102-120.24,0-267.43Z"/><path class="cls-48" d="M966.09,3245.77H936.27a17.93,17.93,0,0,1-14.25-7c-9.29-12.08-28.55-35.64-37.76-36.25-12.4-.83-10.81,43.24-10.81,43.24h-7L857.7,3191a32.39,32.39,0,0,1,17-33.88h0s2.83,21,18.2,30.23,62.52,42.46,62.52,42.46a42.62,42.62,0,0,1,12.12.33C977,3231.84,975.65,3245.77,966.09,3245.77Z"/><path class="cls-49" d="M788.38,3242.37l-27.48-11.56a18,18,0,0,1-10.43-12c-3.88-14.73-12.5-43.92-20.75-48.06-11.1-5.57-26.73,35.67-26.73,35.67l-6.41-2.7,13.13-53.89a32.41,32.41,0,0,1,28.82-24.64h0s-5.52,20.42,5.05,34.92,41.17,63.39,41.17,63.39a42.5,42.5,0,0,1,11,5C803.81,3233.74,797.19,3246.08,788.38,3242.37Z"/><path class="cls-50" d="M948.09,2252.58s-3.45,21.13,1.6,79.23,29.2,194.49,24.28,325c0,0-68.64,16-187.91,8.42,0,0-50.33-203.75-38.07-281.21s78.78-133,78.78-133Z"/><polygon class="cls-51" points="897.36 1864.38 905.75 1963.04 826.04 1963.04 845.86 1812.45 897.36 1864.38"/><path class="cls-52" d="M802.43,1949.4c27.51-1.52,89-4.33,132.59-2a50.61,50.61,0,0,1,46.85,40.2l10.63,50.93a122.6,122.6,0,0,1-1.73,57.31l-42.68,156.69s-38,22.82-121.32-1.6c0,0-73.2-174.55-43.24-286.22A20.74,20.74,0,0,1,802.43,1949.4Z"/><path class="cls-53" d="M979.79,1978.51c11.74,30.93,22.34,63.37,33.74,93.74,5.79,15.2,11.67,30.1,18,43.79,3.18,6.82,6.68,13.08,9.88,18.76a82.3,82.3,0,0,0,8.71,12.45c.36.32-.87.56-1.29.58-.24,0,7.94,1.34,10.45,1.77l9.82-.06c14.06-.73,30-3.21,46-6.31,32.23-6,65.74-14.45,100.14-20.83l.26-.05a12.12,12.12,0,0,1,10.23,21c-13.88,12.21-28.58,22.25-43.83,32-7.68,4.69-15.49,9.3-23.43,13.72-8.1,4.12-16.22,8.28-24.65,12.13-17,7.4-34.52,14.21-54.73,18.59-5.31.89-10.55,1.82-16,2.55-6.12.22-11.69.76-18.38.37-3.56-.35-7.13-.79-10.69-1.31a47.81,47.81,0,0,1-5.6-1q-3.66-1.09-7.28-2.46c-5-1.8-8.26-4-12.33-6.24-3.39-2.23-6.47-4.57-9.47-7-11-9.41-17.9-18.75-24-27.72a218.13,218.13,0,0,1-15.1-26.73,365,365,0,0,1-20.77-52.5c-11-35.13-18.54-69.66-21.7-106.33a31.93,31.93,0,0,1,61.65-14.11Z"/><path class="cls-54" d="M1204.33,2138.16l14.22-33.76,74.87-18.66s6,13-25.45,18.66c0,0,11.23,12.41,5.24,27S1203.58,2160.64,1204.33,2138.16Z"/><path class="cls-55" d="M931.11,1750.45c2.85,1.68,25.28,80.77,6.48,113.93s-76.18-4-91.73-51.93S855.3,1705.74,931.11,1750.45Z"/><path class="cls-56" d="M782.38,1812.45c-12.87,63.07-55.52,45.81-85.73,73.86-49,45.48-119-1.4-187.09,41.69-49.15,31.11-72.83,110.71-49.24,175,32.67,89,144.32,125.6,202.18,98.49,55.29-25.9,47.42-103.5,121.82-133.49,31.59-12.73,47.18-4.46,66.1-23.32,33.11-33,24.18-97.14,20.74-121.83-7.47-53.58-25.44-63.28-16.85-86.83,16.7-45.81,94.6-36.36,101.09-68.69,5.91-29.45-50.55-85.26-103.68-76.47C769.51,1704.44,788.11,1784.35,782.38,1812.45Z"/><path class="cls-57" d="M484.87,2087.89a2.16,2.16,0,0,1-2.1-1.64c-10.52-43.7-5.75-79.53,14.2-106.52,33.11-44.78,97.45-49.21,98.1-49.24a2.19,2.19,0,0,1,2.28,2,2.15,2.15,0,0,1-2,2.28c-.63,0-63,4.37-94.91,47.54-19.15,25.91-23.68,60.53-13.46,102.92a2.16,2.16,0,0,1-1.59,2.6A2.92,2.92,0,0,1,484.87,2087.89Z"/><path class="cls-58" d="M695.6,2127.89a1.31,1.31,0,0,1-.27,0,1.09,1.09,0,0,1-.77-1.32c10.25-39.33,28.24-66.65,53.47-81.2,18.34-10.58,35.53-11.57,50.68-12.44,14.62-.84,27.24-1.56,37.4-10.6,21-18.67,19.79-63.57-3.61-133.46a1.08,1.08,0,1,1,2-.68c23.7,70.78,24.71,116.45,3,135.75-10.72,9.53-23.68,10.28-38.7,11.14s-31.83,1.83-49.74,12.16c-24.7,14.24-42.35,41.12-52.45,79.88A1.09,1.09,0,0,1,695.6,2127.89Z"/><path class="cls-58" d="M812.83,1796.8a1,1,0,0,1-.34-.06,1.07,1.07,0,0,1-.68-1.36c8.15-24.25,31.63-20.65,56.51-16.82,15.75,2.42,32,4.91,45.84.83,10.3-3.06,16.42-7.79,18.19-14.08,3-10.69-7.56-22.62-7.67-22.75a1.06,1.06,0,0,1,.08-1.51,1.08,1.08,0,0,1,1.52.08c.47.52,11.48,12.91,8.14,24.76-2,7-8.59,12.28-19.65,15.56-14.28,4.23-30.8,1.69-46.78-.76-25-3.84-46.56-7.16-54.14,15.38A1.07,1.07,0,0,1,812.83,1796.8Z"/><path class="cls-59" d="M2606.38,3209.84c96.47,19.29,219.68-85.89,259.37-200.81,40.85-118.25-34-167.79-33.47-331.88.66-186.41,97.63-214.5,161.76-465.76,14.47-56.69,98.22-384.75-5.57-446.24-96-56.85-365.53,106.31-412.77,315.16-33.69,148.91,70.45,211.43,30.68,384.87-34.9,152.19-126.62,154.39-161.76,301.21C2401.83,2945.14,2479.7,3184.51,2606.38,3209.84Z"/><path class="cls-60" d="M2613.38,3255c-26-200.84,24.73-510.68,71.87-735.24,51-243.13,109-441.45,109.55-443.42l8,2.35c-.58,2-58.43,200-109.4,442.84-47,223.91-97.6,532.73-71.75,732.4Z"/><path class="cls-61" d="M2771,3182.06c-113-58.88-151.68-261.07-87.45-326.78,43.41-44.4,105.65,2.3,165.69-43.72,76.67-58.76,20.27-169.44,80.55-313,51.29-122.15,174.33-237.73,246.23-214,75.26,24.82,114.9,209,50.63,319.87-41.8,72.09-105.79,75.63-119.67,142.68-16.11,77.79,61.71,113.27,62.13,188.7C3169.89,3071.31,2920.51,3260,2771,3182.06Z"/><path class="cls-62" d="M2832,3233.84a4.55,4.55,0,0,1-2-.47,4.61,4.61,0,0,1-2.13-6.15c149.81-308.7,193.74-666.82,194.17-670.4a4.6,4.6,0,0,1,9.14,1.09c-.43,3.6-44.55,363.26-195,673.33A4.59,4.59,0,0,1,2832,3233.84Z"/><path class="cls-63" d="M3139.35,2650.75a3.44,3.44,0,0,1-2.08-.71,3.39,3.39,0,0,1-.59-4.75c47-60.38,99.21-151.06,80.69-240.23-11-53.2-42.57-81.09-42.88-81.37a3.38,3.38,0,0,1,4.43-5.11c1.36,1.17,33.37,29.4,45,84.66,10.65,50.69,5.1,134.55-81.89,246.2A3.38,3.38,0,0,1,3139.35,2650.75Z"/><path class="cls-63" d="M2760.82,3156.28a3.35,3.35,0,0,1-2.79-1.47c-72.91-106.41-97.73-188.74-73.77-244.7,21.42-50,73.8-59,76-59.39a3.38,3.38,0,0,1,1.09,6.68c-.51.08-51,8.88-70.92,55.45-22.61,52.94,2.69,135.28,73.16,238.14a3.38,3.38,0,0,1-2.79,5.29Z"/></g></svg>